<svg width="232" height="68" viewBox="0 0 232 68" fill="none" xmlns="http://www.w3.org/2000/svg">
<path d="M64.6108 16.2024C63.0363 9.89221 58.1092 4.96521 51.7988 3.39069C40.0059 1.53644 27.9957 1.53644 16.2027 3.39069C9.8924 4.96521 4.96528 9.89221 3.39072 16.2024C1.53643 27.995 1.53643 40.005 3.39072 51.7976C4.96528 58.1078 9.8924 63.0348 16.2027 64.6093C27.9957 66.4636 40.0059 66.4636 51.7988 64.6093C58.1092 63.0348 63.0363 58.1078 64.6108 51.7976C66.463 40.0048 66.463 27.9952 64.6108 16.2024Z" fill="#2D89EF"/>
<path d="M94.292 20.44L101.204 39.772L108.044 20.44H113.264L103.292 46H99.116L89.072 20.44H94.292ZM121.134 46.36C119.19 46.36 117.714 45.736 116.706 44.488C115.698 43.24 115.194 41.392 115.194 38.944V27.136H120.018V37.9C120.018 40.804 121.062 42.256 123.15 42.256C124.086 42.256 124.986 41.98 125.85 41.428C126.738 40.852 127.458 39.988 128.01 38.836V27.136H132.834V40.456C132.834 40.96 132.918 41.32 133.086 41.536C133.278 41.752 133.578 41.872 133.986 41.896V46C133.506 46.096 133.098 46.156 132.762 46.18C132.45 46.204 132.162 46.216 131.898 46.216C131.034 46.216 130.326 46.024 129.774 45.64C129.246 45.232 128.934 44.68 128.838 43.984L128.73 42.472C127.89 43.768 126.81 44.74 125.49 45.388C124.17 46.036 122.718 46.36 121.134 46.36ZM138.672 19.72H143.496V39.952C143.496 40.648 143.664 41.188 144 41.572C144.336 41.956 144.816 42.148 145.44 42.148C145.728 42.148 146.04 42.1 146.376 42.004C146.736 41.908 147.072 41.788 147.384 41.644L148.032 45.316C147.384 45.628 146.628 45.868 145.764 46.036C144.9 46.204 144.12 46.288 143.424 46.288C141.912 46.288 140.736 45.892 139.896 45.1C139.08 44.284 138.672 43.132 138.672 41.644V19.72ZM162.517 45.028C161.869 45.316 161.077 45.604 160.141 45.892C159.205 46.18 158.221 46.324 157.189 46.324C156.517 46.324 155.881 46.24 155.281 46.072C154.705 45.904 154.189 45.64 153.733 45.28C153.301 44.896 152.953 44.416 152.689 43.84C152.425 43.24 152.293 42.52 152.293 41.68V30.844H149.809V27.136H152.293V21.016H157.117V27.136H161.077V30.844H157.117V40.06C157.117 40.732 157.285 41.212 157.621 41.5C157.981 41.764 158.413 41.896 158.917 41.896C159.421 41.896 159.913 41.812 160.393 41.644C160.873 41.476 161.257 41.332 161.545 41.212L162.517 45.028ZM177.342 31.312C175.878 31.336 174.57 31.624 173.418 32.176C172.266 32.704 171.438 33.508 170.934 34.588V46H166.11V27.136H170.538V31.168C170.874 30.52 171.27 29.944 171.726 29.44C172.182 28.912 172.674 28.456 173.202 28.072C173.73 27.688 174.258 27.4 174.786 27.208C175.338 26.992 175.866 26.884 176.37 26.884C176.634 26.884 176.826 26.884 176.946 26.884C177.09 26.884 177.222 26.896 177.342 26.92V31.312ZM188.874 46.36C187.338 46.36 185.958 46.096 184.734 45.568C183.51 45.04 182.466 44.332 181.602 43.444C180.762 42.532 180.114 41.488 179.658 40.312C179.202 39.136 178.974 37.9 178.974 36.604C178.974 35.284 179.202 34.036 179.658 32.86C180.114 31.684 180.762 30.652 181.602 29.764C182.466 28.852 183.51 28.132 184.734 27.604C185.958 27.076 187.338 26.812 188.874 26.812C190.41 26.812 191.778 27.076 192.978 27.604C194.202 28.132 195.234 28.852 196.074 29.764C196.938 30.652 197.598 31.684 198.054 32.86C198.51 34.036 198.738 35.284 198.738 36.604C198.738 37.9 198.51 39.136 198.054 40.312C197.598 41.488 196.95 42.532 196.11 43.444C195.27 44.332 194.238 45.04 193.014 45.568C191.79 46.096 190.41 46.36 188.874 46.36ZM183.942 36.604C183.942 37.444 184.062 38.212 184.302 38.908C184.566 39.58 184.914 40.168 185.346 40.672C185.802 41.176 186.33 41.572 186.93 41.86C187.53 42.124 188.178 42.256 188.874 42.256C189.57 42.256 190.218 42.124 190.818 41.86C191.418 41.572 191.934 41.176 192.366 40.672C192.822 40.168 193.17 39.568 193.41 38.872C193.674 38.176 193.806 37.408 193.806 36.568C193.806 35.752 193.674 34.996 193.41 34.3C193.17 33.604 192.822 33.004 192.366 32.5C191.934 31.996 191.418 31.612 190.818 31.348C190.218 31.06 189.57 30.916 188.874 30.916C188.178 30.916 187.53 31.06 186.93 31.348C186.33 31.636 185.802 32.032 185.346 32.536C184.914 33.04 184.566 33.64 184.302 34.336C184.062 35.032 183.942 35.788 183.942 36.604ZM220.606 46H215.782V35.416C215.782 33.904 215.518 32.8 214.99 32.104C214.462 31.408 213.73 31.06 212.794 31.06C212.314 31.06 211.822 31.156 211.318 31.348C210.814 31.54 210.334 31.816 209.878 32.176C209.446 32.512 209.05 32.92 208.69 33.4C208.33 33.88 208.066 34.408 207.898 34.984V46H203.074V27.136H207.43V30.628C208.126 29.428 209.134 28.492 210.454 27.82C211.774 27.148 213.262 26.812 214.918 26.812C216.094 26.812 217.054 27.028 217.798 27.46C218.542 27.892 219.118 28.456 219.526 29.152C219.934 29.848 220.21 30.64 220.354 31.528C220.522 32.416 220.606 33.316 220.606 34.228V46Z" fill="#4A4A4A"/>
<g clip-path="url(#clip0)">
<path d="M37.0968 47.9884L50.1417 15.7061C50.6248 14.5598 51.3227 14 52.2622 14C53.2016 14 53.8995 14.2399 54.329 14.7197C54.7584 15.1996 55 15.7061 55 16.2659C55 16.8257 54.9463 17.2256 54.8389 17.4655L41.1498 50.4409C40.3714 52.1203 39.2172 52.9733 37.7141 52.9733H36.5062C34.9763 52.9733 33.8489 52.147 33.0705 50.4409L27.7828 37.7252H32.9632L37.0968 47.9884Z" fill="white"/>
<path d="M24.1323 15.8939C23.676 14.8009 22.6024 14.0278 21.3408 14.0278C21.3408 14.0278 21.314 14.0278 21.2871 14.0278H14.4426C13.0737 14.0278 12 15.1208 12 16.4537C12 17.7866 13.1005 18.9062 14.4426 18.9062H19.9182L22.7097 25.6505L25.716 33.0347H31.0306L24.1323 15.8939Z" fill="white"/>
</g>
<defs>
<clipPath id="clip0">
<rect width="43" height="39" fill="white" transform="translate(12 14)"/>
</clipPath>
</defs>
</svg>
