<?xml version="1.0" encoding="iso-8859-1"?>
<!-- Generator: Adobe Illustrator 16.0.0, SVG Export Plug-In . SVG Version: 6.00 Build 0)  -->
<!DOCTYPE svg PUBLIC "-//W3C//DTD SVG 1.1//EN" "http://www.w3.org/Graphics/SVG/1.1/DTD/svg11.dtd">
<svg xmlns="http://www.w3.org/2000/svg" xmlns:xlink="http://www.w3.org/1999/xlink" version="1.1" id="Capa_1" x="0px" y="0px" width="512px" height="512px" viewBox="0 0 83.816 83.816" style="enable-background:new 0 0 83.816 83.816;" xml:space="preserve">
<g>
	<g>
		<path d="M57.678,40.82c0-2.021-1.645-3.667-3.666-3.667s-3.666,1.646-3.666,3.667c0,2.022,1.645,3.667,3.666,3.667    C56.033,44.486,57.678,42.842,57.678,40.82z" fill="#006DF0"/>
		<path d="M42.16,41.82h-4c-0.552,0-1,0.45-1,1v20.167c0,0.551,0.448,1,1,1h4c0.552,0,1-0.449,1-1V42.82    C43.16,42.268,42.712,41.82,42.16,41.82z" fill="#006DF0"/>
		<path d="M31.16,41.82h-4c-0.552,0-1,0.45-1,1v20.167c0,0.551,0.448,1,1,1h4c0.552,0,1-0.449,1-1V42.82    C32.16,42.268,31.712,41.82,31.16,41.82z" fill="#006DF0"/>
		<path d="M20.16,41.82h-4c-0.552,0-1,0.45-1,1v20.167c0,0.551,0.448,1,1,1h4c0.552,0,1-0.449,1-1V42.82    C21.16,42.268,20.712,41.82,20.16,41.82z" fill="#006DF0"/>
		<path d="M41.908,0C18.762,0,0,18.763,0,41.909c0,23.146,18.763,41.907,41.908,41.907c23.145,0,41.908-18.762,41.908-41.907    C83.816,18.764,65.055,0,41.908,0z M23.16,62.986c0,1.654-1.346,3-3,3h-4c-1.654,0-3-1.346-3-3V42.82c0-1.654,1.346-3,3-3h4    c1.654,0,3,1.346,3,3V62.986z M34.16,62.986c0,1.654-1.346,3-3,3h-4c-1.654,0-3-1.346-3-3V42.82c0-1.654,1.346-3,3-3h4    c1.654,0,3,1.346,3,3V62.986z M45.16,62.986c0,1.654-1.346,3-3,3h-4c-1.654,0-3-1.346-3-3V42.82c0-1.654,1.346-3,3-3h4    c1.654,0,3,1.346,3,3V62.986z M48.346,40.82c0-2.783,2.019-5.099,4.666-5.573V26.82c0-0.552,0.447-1,1-1s1,0.448,1,1v8.427    c2.322,0.417,4.156,2.25,4.572,4.573h3.26c0.553,0,1,0.448,1,1c0,0.552-0.447,1-1,1h-3.26c-0.475,2.649-2.79,4.667-5.572,4.667    C50.887,46.486,48.346,43.943,48.346,40.82z M71.905,48.152c-2.99,7.291-10.015,12-17.894,12c-0.554,0-1-0.447-1-1    c0-0.551,0.446-1,1-1c7.063,0,13.361-4.223,16.043-10.76c0.209-0.512,0.793-0.754,1.306-0.545    C71.871,47.057,72.115,47.641,71.905,48.152z M73.568,33.255c0.293-0.467,0.908-0.611,1.378-0.317    c0.468,0.292,0.61,0.91,0.317,1.378l-2.565,4.103c-0.022,0.038-0.056,0.067-0.083,0.101c-0.026,0.032-0.049,0.068-0.079,0.096    c-0.034,0.032-0.073,0.055-0.11,0.082c-0.031,0.022-0.061,0.049-0.095,0.068c-0.046,0.025-0.095,0.04-0.144,0.057    c-0.029,0.011-0.06,0.027-0.09,0.035c-0.08,0.021-0.164,0.032-0.248,0.032c-0.09,0-0.179-0.012-0.267-0.037    c-0.028-0.008-0.055-0.025-0.083-0.035c-0.056-0.021-0.111-0.039-0.165-0.071l-4.126-2.478c-0.474-0.284-0.627-0.899-0.343-1.372    c0.284-0.473,0.897-0.627,1.372-0.343l2.42,1.453c-2.131-7.38-8.941-12.519-16.646-12.519c-8.097,0-15.037,5.497-16.878,13.368    c-0.107,0.461-0.519,0.772-0.973,0.772c-0.075,0-0.152-0.008-0.229-0.026c-0.538-0.126-0.872-0.664-0.746-1.202    c2.055-8.78,9.795-14.912,18.825-14.912c8.451,0,15.932,5.547,18.438,13.558L73.568,33.255z" fill="#006DF0"/>
	</g>
</g>
<g>
</g>
<g>
</g>
<g>
</g>
<g>
</g>
<g>
</g>
<g>
</g>
<g>
</g>
<g>
</g>
<g>
</g>
<g>
</g>
<g>
</g>
<g>
</g>
<g>
</g>
<g>
</g>
<g>
</g>
</svg>
