<svg width="126" height="127" viewBox="0 0 126 127" fill="none" xmlns="http://www.w3.org/2000/svg">
<path fill-rule="evenodd" clip-rule="evenodd" d="M20.9051 47.6448L16.9844 51.8498L13.0637 47.6448V18.0489H0L16.9844 0L33.6826 18.0489H20.9051L20.9051 47.6448V47.6448Z" transform="translate(2.99999 82.6451) scale(1.06366 1.13458) rotate(-90)" fill="#932279"/>
<path fill-rule="evenodd" clip-rule="evenodd" d="M20.8964 47.6646L16.9773 51.8713L13.0583 47.6646V18.0564H0L16.9773 0L33.6686 18.0564H20.8964L20.8964 47.6646V47.6646Z" transform="translate(44.2245 3) scale(1.13457 1.06367)" fill="#EFA724"/>
<path fill-rule="evenodd" clip-rule="evenodd" d="M20.9051 47.6448L16.9844 51.8498L13.0637 47.6448V18.0489H0L16.9844 0L33.6826 18.0489H20.9051L20.9051 47.6448V47.6448Z" transform="translate(123.836 44.2418) scale(1.06366 1.13458) rotate(90)" fill="#262577"/>
<path fill-rule="evenodd" clip-rule="evenodd" d="M20.8964 47.6646L16.9773 51.8713L13.0583 47.6646V18.0564H0L16.9773 0L33.6686 18.0564H20.8964L20.8964 47.6646V47.6646Z" transform="translate(82.6115 123.887) scale(1.13457 1.06367) rotate(-180)" fill="#9CCD2A"/>
<path d="M0 0H35.9609V35.9758H0V0Z" transform="translate(21.0695 21.0772) scale(1.06366)" fill="#9CCD2A" stroke="white" stroke-width="3.54331"/>
<path d="M0 0H35.9609V35.9758H0V0Z" transform="translate(67.5163 21.0772) scale(1.06366)" fill="#932279" stroke="white" stroke-width="3.54331"/>
<path d="M0 0H35.9609V35.9758H0V0Z" transform="translate(67.5163 67.5435) scale(1.06366)" fill="#EFA724" stroke="white" stroke-width="3.54331"/>
<path d="M0 0H35.9609V35.9758H0V0Z" transform="translate(21.0695 67.5435) scale(1.06366)" fill="#262577" stroke="white" stroke-width="3.54331"/>
<path d="M0 0H35.9684V35.9684H0V0Z" transform="translate(3.52809 63.4436) scale(1.06344 1.06389) rotate(-45)" stroke="white" stroke-width="3.54331"/>
<path d="M0 0H35.9684V35.9684H0V0Z" transform="translate(36.3709 30.587) scale(1.06344 1.06389) rotate(-45)" stroke="white" stroke-width="3.54307"/>
<path d="M0 25.4388L25.4282 0L50.8564 25.4388L25.4282 50.8775L0 25.4388Z" transform="translate(69.2138 36.3851) scale(1.06366)" stroke="white" stroke-width="3.54331"/>
<path d="M0 0H35.9684V35.9684H0V0Z" transform="translate(36.3709 96.3002) scale(1.06344 1.06389) rotate(-45)" stroke="white" stroke-width="3.54331"/>
</svg>
