<svg width="189" height="188" viewBox="0 0 189 188" fill="none" xmlns="http://www.w3.org/2000/svg">
<path d="M94.0742 0C42.1964 0 0 42.1679 0 93.9996C0 145.835 42.1964 188 94.0742 188C145.936 188 188.136 145.835 188.136 93.9996C188.136 42.1679 145.936 0 94.0742 0Z" fill="#53A3DA"/>
<path d="M34.4388 0C19.3113 0 6.48145 24.1793 1.84772 57.7862C1.69979 58.8673 1.55625 59.9614 1.42934 61.0626C0.796508 66.3515 0.36762 71.8512 0.153177 77.5127C0.0507689 80.1034 0 82.722 0 85.3739C0 88.0232 0.0507689 90.6471 0.153177 93.2325C0.36762 98.8931 0.796508 104.396 1.42934 109.685C8.52261 110.603 16.1069 111.225 24.0177 111.521C27.4374 111.649 30.9079 111.725 34.4397 111.725C37.9609 111.725 41.4419 111.648 44.8511 111.521C52.7715 111.225 60.3506 110.603 67.45 109.685C68.2307 109.586 68.9992 109.476 69.7773 109.363C99.3215 105.218 119.874 96.041 119.874 85.3739C119.873 38.2206 81.619 0 34.4388 0Z" transform="translate(59.6355 8.62564)" fill="#F1606D"/>
<path d="M48.5247 18.6953C47.6678 17.4463 46.7487 16.2498 45.7693 15.1006C37.9303 5.86705 26.2532 0 13.1879 0C8.95237 0 5.18079 6.47841 2.76589 16.5385C1.80658 20.5495 1.06172 25.1265 0.582062 30.0935C0.203941 34.074 0 38.3072 0 42.6874C0 47.0676 0.203941 51.3017 0.582062 55.2786C4.56809 55.6565 8.79832 55.8594 13.1879 55.8594C17.5721 55.8594 21.8024 55.6565 25.7884 55.2786C34.5508 54.4477 42.115 52.7641 47.4734 50.546C52.7654 48.3585 55.8971 45.6349 55.8971 42.6874C55.8963 33.7941 53.1785 25.5341 48.5247 18.6953Z" transform="translate(80.8873 51.3122)" fill="white"/>
</svg>
