<svg width="222" height="276" viewBox="0 0 222 276" fill="none" xmlns="http://www.w3.org/2000/svg">
<path d="M1.70546 0.5828C-2.8734 0.646424 2.5718 2.93944 8.54955 3.85818C10.2007 2.57042 11.699 1.2674 13.0341 0C9.31142 0.911101 5.52246 0.931461 1.70546 0.5828Z" transform="translate(130.967 145.237)" fill="#A80030"/>
<path d="M2.86503 12.1294C5.59145 8.37043 7.57894 4.2552 8.27965 0C7.66812 3.03361 6.01952 5.65239 4.46775 8.41623C-4.09118 13.7989 3.66257 5.21975 4.46266 1.95963C-4.74094 13.5291 3.19882 8.89724 2.86503 12.1294Z" transform="translate(154.384 127.572)" fill="#A80030"/>
<path d="M2.35442 5.51157C2.90735 -2.72397 0.731293 -0.120461 0 3.02258C0.8536 3.46541 1.52885 8.82767 2.35442 5.51157Z" transform="translate(163.965 110.613)" fill="#A80030"/>
<path d="M0 0C2.44359 0.437736 5.27958 0.773672 4.88208 1.35647C7.555 0.771127 8.16144 0.231593 0 0Z" transform="translate(115.31 3.56042)" fill="#A80030"/>
<path d="M1.72759 0L0 0.356296L1.60783 0.213778L1.72759 0Z" transform="translate(118.465 4.91689)" fill="#A80030"/>
<path d="M194.814 117.28C195.087 124.676 192.649 128.264 190.45 134.616L186.492 136.591C183.254 142.872 186.806 140.579 184.487 145.575C179.432 150.064 169.145 159.623 165.853 160.496C163.45 160.443 167.481 157.664 168.009 156.575C161.241 161.217 162.579 163.543 152.229 166.362L151.926 165.691C126.399 177.685 90.9403 153.915 91.4066 121.482C91.1339 123.541 90.6319 123.027 90.0663 123.859C88.7489 107.171 97.7818 90.4102 113.017 83.5668C127.918 76.1991 145.387 79.2225 156.061 89.1581C150.198 81.4876 138.528 73.3564 124.697 74.1173C111.149 74.3311 98.4749 82.9306 94.2451 92.2655C87.3042 96.6302 86.499 109.09 83.4745 111.371C79.4052 141.241 91.1288 154.147 110.96 169.327C114.082 171.43 111.839 171.748 112.262 173.348C105.673 170.266 99.6393 165.614 94.6783 159.919C97.3104 163.767 100.152 167.508 103.823 170.447C97.6111 168.345 89.3121 155.411 86.8889 154.885C97.5983 174.036 130.338 188.471 147.482 181.309C139.55 181.602 129.472 181.472 120.559 178.181C116.816 176.257 111.725 172.272 112.634 171.526C136.031 180.255 160.199 178.138 180.443 161.929C185.593 157.923 191.219 151.108 192.845 151.014C190.396 154.691 193.263 152.782 191.382 156.03C196.514 147.764 189.153 152.665 196.687 141.755L199.47 145.583C198.435 138.722 208.001 130.389 207.03 119.537C209.224 116.219 209.479 123.108 207.15 130.743C210.381 122.273 208.001 120.912 208.831 113.923C209.728 116.272 210.905 118.769 211.509 121.248C209.405 113.063 213.67 107.464 214.725 102.708C213.685 102.247 211.476 106.327 210.972 96.6581C211.046 92.4589 212.141 94.4567 212.564 93.4235C211.739 92.9501 209.573 89.7307 208.255 83.5566C209.211 82.106 210.809 87.3181 212.108 87.5319C211.272 82.6226 209.833 78.879 209.774 75.1124C205.978 67.1873 208.431 76.1686 205.351 71.7098C201.309 59.1198 208.704 68.7881 209.203 63.067C215.329 71.9312 218.822 85.669 220.425 91.3595C219.202 84.4219 217.225 77.7006 214.812 71.1982C216.672 71.9795 211.815 56.9235 217.23 66.8947C211.446 45.639 192.475 25.7781 175.024 16.4584C177.159 18.4103 179.855 20.8612 178.887 21.2455C170.208 16.0842 171.734 15.6821 170.491 13.5011C163.42 10.6278 162.956 13.7327 158.273 13.5062C144.946 6.44642 142.378 7.19719 130.114 2.77402L130.672 5.37753C121.843 2.44063 120.386 6.49223 110.843 5.38771C110.262 4.93471 113.901 3.74875 116.895 3.31356C108.359 4.43844 108.759 1.63387 100.406 3.62404C102.465 2.18104 104.641 1.22668 106.838 0C99.8763 0.422466 90.2192 4.04651 93.2004 0.750768C81.8462 5.81018 61.6809 12.9132 50.365 23.5105L50.0082 21.136C44.8229 27.3534 27.3967 39.7042 26.008 47.7565L24.6219 48.0797C21.9235 52.6428 20.1781 57.8142 18.0377 62.5097C14.5087 68.5158 12.8652 64.8205 13.3671 65.7622C6.42621 79.8181 2.97868 91.6293 0 101.315C2.12253 104.484 0.0509612 120.39 0.8536 133.12C-2.63215 195.991 45.0319 257.035 97.132 271.129C104.769 273.857 116.125 273.753 125.785 274.033C114.388 270.778 112.915 272.307 101.813 268.441C93.8043 264.675 92.0487 260.374 86.3767 255.457L88.6215 259.419C77.4967 255.487 82.152 254.553 73.1013 251.69L75.499 248.563C71.8935 248.29 65.9489 242.493 64.3232 239.284L60.3788 239.439C55.6394 233.598 53.1143 229.389 53.2978 226.129L52.0237 228.396C50.579 225.92 34.5874 206.492 42.8838 211.014C41.3423 209.607 39.2936 208.724 37.0717 204.692L38.7611 202.763C34.7683 197.633 31.4125 191.056 31.6673 188.865C33.7975 191.738 35.2753 192.275 36.7379 192.767C26.6553 167.78 26.0896 191.39 18.453 167.332L20.0685 167.202C18.8302 165.339 18.0785 163.316 17.0822 161.331L17.7855 154.332C10.526 145.949 15.7547 118.687 16.8019 103.736C17.5281 97.6558 22.8612 91.1839 26.9177 81.0345L24.4461 80.6095C29.1702 72.3791 51.4199 47.5554 61.7242 48.833C66.7159 42.5698 60.733 48.8101 59.7571 47.2322C70.7214 35.8994 74.1689 39.2257 81.5685 37.1872C89.549 32.4561 74.7193 39.0323 78.5032 35.3828C92.2984 31.8631 88.2801 27.3814 106.277 25.5948C108.175 26.6739 101.871 27.2618 100.289 28.6615C111.783 23.0447 136.663 24.3223 152.822 31.7791C171.574 40.5313 192.641 66.4035 193.472 90.7462L194.417 91.0007C193.938 100.677 195.9 111.867 192.501 122.146L194.814 117.28Z" transform="translate(1.57498 1.96727)" fill="#A80030"/>
<path d="M0.642118 0L0 3.20666C3.00926 7.2888 5.39679 11.712 9.23926 14.9034C6.47462 9.51312 4.42089 7.28626 0.642118 0Z" transform="translate(82.0529 152.098)" fill="#A80030"/>
<path d="M3.59022 5.98578C1.99768 4.22721 1.0549 2.10978 0 0C1.00903 3.70803 3.0755 6.89434 4.99929 10.1341L3.59022 5.98578Z" transform="translate(86.219 145.832)" fill="#A80030"/>
<path d="M8.65067 0L7.97799 1.68477C6.74473 10.4344 4.08199 19.0924 0 27.1193C4.51007 18.6496 7.42761 9.38587 8.65067 0Z" transform="translate(207.043 124.49)" fill="#A80030"/>
<path d="M1.85244 1.36665C4.94834 0.234138 9.4635 0.745678 12.7479 0C8.46721 0.358842 4.20685 0.572619 0 1.1147L1.85244 1.36665Z" transform="translate(114.362)" fill="#A80030"/>
<path d="M1.69059 0C2.40404 6.59658 -3.27813 9.15682 2.94933 4.80746C6.28729 -2.70276 1.64472 2.7333 1.69059 0Z" transform="translate(5.83667 59.0918)" fill="#A80030"/>
<path d="M0.209219 9.58438C1.64378 5.18666 1.90368 2.54498 2.45151 0C-1.51327 5.06196 0.627101 6.14103 0.209219 9.58438Z" transform="translate(0 80.0369)" fill="#A80030"/>
</svg>
