<?xml version="1.0" encoding="iso-8859-1"?>
<!-- Generator: Adobe Illustrator 18.0.0, SVG Export Plug-In . SVG Version: 6.00 Build 0)  -->
<!DOCTYPE svg PUBLIC "-//W3C//DTD SVG 1.1//EN" "http://www.w3.org/Graphics/SVG/1.1/DTD/svg11.dtd">
<svg xmlns="http://www.w3.org/2000/svg" xmlns:xlink="http://www.w3.org/1999/xlink" version="1.1" id="Capa_1" x="0px" y="0px" viewBox="0 0 58 58" style="enable-background:new 0 0 58 58;" xml:space="preserve" width="512px" height="512px">
<g>
	<path d="M27.071,20.604c-0.082,0.085-0.152,0.173-0.214,0.264l-0.046,0.067C26.611,21.251,26.5,21.616,26.5,22   c0,0.534,0.208,1.036,0.586,1.414c0.756,0.756,2.072,0.756,2.828,0C30.292,23.036,30.5,22.534,30.5,22s-0.208-1.036-0.586-1.414   S29.034,20,28.5,20c-0.384,0-0.75,0.111-1.067,0.312l-0.064,0.044c-0.082,0.057-0.16,0.121-0.235,0.19   c-0.015,0.014-0.033,0.025-0.048,0.039C27.08,20.591,27.077,20.598,27.071,20.604z" fill="#006DF0"/>
	<path d="M28.5,18c1.068,0,2.073,0.417,2.828,1.172C32.084,19.927,32.5,20.932,32.5,22c0,0.41-0.079,0.804-0.198,1.185l6.777,1.816   C39.352,24.036,39.5,23.03,39.5,22c0-2.938-1.144-5.701-3.222-7.778S31.438,11,28.5,11c-0.975,0-1.928,0.137-2.846,0.382   l1.815,6.769C27.803,18.062,28.145,18,28.5,18z" fill="#006DF0"/>
	<path d="M35.074,30.806c0.065-0.049,0.131-0.095,0.195-0.145c0.353-0.275,0.693-0.566,1.01-0.883   c0.235-0.235,0.455-0.482,0.666-0.734c0.093-0.111,0.179-0.227,0.267-0.342c0.105-0.135,0.207-0.271,0.305-0.411   c0.115-0.165,0.224-0.332,0.33-0.503c0.049-0.079,0.097-0.159,0.144-0.239c0.128-0.22,0.252-0.442,0.365-0.672l-6.041-1.619   l1.678,6.266c0.004-0.002,0.008-0.005,0.012-0.007C34.376,31.302,34.73,31.061,35.074,30.806z" fill="#006DF0"/>
	<path d="M23.771,12.078c-0.265,0.125-0.522,0.262-0.774,0.406c-0.055,0.032-0.109,0.065-0.163,0.098   c-0.205,0.123-0.407,0.251-0.604,0.387c-0.124,0.086-0.244,0.179-0.365,0.271c-0.134,0.101-0.27,0.2-0.399,0.307   c-0.256,0.214-0.506,0.437-0.744,0.675c-0.246,0.246-0.474,0.503-0.691,0.765c-0.089,0.108-0.171,0.221-0.256,0.333   c-0.116,0.151-0.23,0.303-0.337,0.459c-0.108,0.157-0.209,0.319-0.309,0.482c-0.065,0.106-0.128,0.212-0.188,0.319   c-0.114,0.203-0.224,0.408-0.325,0.619c-0.012,0.024-0.022,0.049-0.034,0.074l7.091,1.9L23.771,12.078z" fill="#006DF0"/>
	<path d="M28.5,26c-1.068,0-2.073-0.417-2.828-1.172C24.916,24.073,24.5,23.068,24.5,22c0-0.355,0.062-0.697,0.151-1.031   l-6.764-1.812c-0.977,3.67-0.038,7.749,2.835,10.622C22.8,31.856,25.562,33,28.5,33c1.264,0,2.49-0.224,3.648-0.63l-1.829-6.826   C29.76,25.831,29.146,26,28.5,26z" fill="#006DF0"/>
	<path d="M37.142,45.988c-0.232-0.31-0.497-0.533-0.793-0.67s-0.608-0.205-0.937-0.205c-0.338,0-0.658,0.063-0.964,0.191   s-0.579,0.344-0.82,0.649s-0.431,0.699-0.567,1.183s-0.21,1.075-0.219,1.777c0.009,0.684,0.08,1.267,0.212,1.75   s0.314,0.877,0.547,1.183s0.497,0.528,0.793,0.67s0.608,0.212,0.937,0.212c0.337,0,0.658-0.066,0.964-0.198s0.579-0.349,0.82-0.649   s0.431-0.695,0.567-1.183s0.209-1.082,0.219-1.784c-0.01-0.684-0.08-1.265-0.212-1.743S37.374,46.298,37.142,45.988z" fill="#006DF0"/>
	<path d="M51.5,39V13.978c0-0.766-0.092-1.333-0.55-1.792L39.313,0.55C38.964,0.201,38.48,0,37.985,0H8.963   C7.777,0,6.5,0.916,6.5,2.926V39H51.5z M15.911,18.627l0.366-1.022c0.009-0.025,0.022-0.048,0.031-0.073   c0.141-0.386,0.301-0.765,0.479-1.139c0.027-0.057,0.052-0.115,0.08-0.172c0.171-0.346,0.362-0.684,0.566-1.016   c0.045-0.074,0.085-0.15,0.132-0.223c0.198-0.308,0.415-0.606,0.642-0.9c0.06-0.078,0.113-0.161,0.174-0.237   c0.288-0.357,0.596-0.704,0.928-1.036c0.329-0.329,0.675-0.635,1.031-0.923c0.066-0.053,0.136-0.099,0.203-0.151   c0.308-0.24,0.624-0.467,0.95-0.677c0.044-0.028,0.089-0.053,0.133-0.08c0.372-0.233,0.755-0.445,1.147-0.639   c0.002-0.001,0.004-0.002,0.006-0.003c0.629-0.309,1.277-0.579,1.949-0.781l0.399-0.143l0.011,0.041C26.222,9.162,27.347,9,28.5,9   c3.385,0,6.567,1.293,9,3.633V3.391c0-0.458,0.553-0.687,0.877-0.363l10.095,10.095C48.796,13.447,48.567,14,48.109,14h-9.373   c1.787,2.277,2.764,5.061,2.764,8c0,1.207-0.174,2.386-0.49,3.518l0.041,0.011l-0.359,0.959c-0.319,0.867-0.726,1.698-1.225,2.482   c-0.019,0.031-0.036,0.063-0.056,0.094c-0.21,0.324-0.439,0.637-0.68,0.943c-0.045,0.058-0.085,0.12-0.132,0.177   c-0.284,0.349-0.584,0.687-0.907,1.009c-0.288,0.288-0.59,0.561-0.904,0.82c-0.281,0.234-0.575,0.449-0.872,0.657   c-0.023,0.016-0.044,0.034-0.067,0.05c-0.797,0.549-1.648,1.003-2.54,1.358l-0.63,0.278l-0.013-0.048   C31.341,34.755,29.941,35,28.5,35c-3.473,0-6.737-1.352-9.192-3.808c-3.396-3.396-4.504-8.216-3.35-12.553L15.911,18.627z" fill="#006DF0"/>
	<path d="M6.5,41v15c0,1.009,1.22,2,2.463,2h40.074c1.243,0,2.463-0.991,2.463-2V41H6.5z M21.453,54h-1.668V43.924h1.668V54z    M29.444,52.298c-0.15,0.342-0.362,0.643-0.636,0.902s-0.611,0.467-1.012,0.622c-0.401,0.155-0.857,0.232-1.367,0.232   c-0.219,0-0.444-0.012-0.677-0.034s-0.468-0.062-0.704-0.116c-0.237-0.055-0.463-0.13-0.677-0.226s-0.399-0.212-0.554-0.349   l0.287-1.176c0.127,0.073,0.289,0.144,0.485,0.212s0.398,0.132,0.608,0.191c0.209,0.06,0.419,0.107,0.629,0.144   c0.209,0.036,0.405,0.055,0.588,0.055c0.556,0,0.982-0.13,1.278-0.39s0.444-0.645,0.444-1.155c0-0.31-0.105-0.574-0.314-0.793   c-0.21-0.219-0.472-0.417-0.786-0.595s-0.654-0.355-1.019-0.533c-0.365-0.178-0.707-0.388-1.025-0.629   c-0.319-0.241-0.584-0.526-0.793-0.854c-0.21-0.328-0.314-0.738-0.314-1.23c0-0.446,0.082-0.843,0.246-1.189   s0.385-0.641,0.663-0.882s0.602-0.426,0.971-0.554s0.759-0.191,1.169-0.191c0.419,0,0.843,0.039,1.271,0.116   c0.428,0.077,0.774,0.203,1.039,0.376c-0.055,0.118-0.119,0.248-0.191,0.39c-0.073,0.142-0.142,0.273-0.205,0.396   c-0.064,0.123-0.119,0.226-0.164,0.308c-0.046,0.082-0.073,0.128-0.082,0.137c-0.055-0.027-0.116-0.063-0.185-0.109   s-0.167-0.091-0.294-0.137c-0.128-0.046-0.297-0.077-0.506-0.096c-0.21-0.019-0.479-0.014-0.807,0.014   c-0.183,0.019-0.355,0.07-0.52,0.157s-0.311,0.193-0.438,0.321c-0.128,0.128-0.229,0.271-0.301,0.431   c-0.073,0.159-0.109,0.313-0.109,0.458c0,0.364,0.104,0.658,0.314,0.882c0.209,0.224,0.469,0.419,0.779,0.588   c0.31,0.169,0.646,0.333,1.012,0.492c0.364,0.159,0.704,0.354,1.019,0.581s0.576,0.513,0.786,0.854   c0.209,0.342,0.314,0.781,0.314,1.319C29.67,51.603,29.595,51.956,29.444,52.298z M39.247,51.156   c-0.214,0.647-0.511,1.185-0.889,1.613s-0.82,0.752-1.326,0.971s-1.06,0.328-1.661,0.328s-1.155-0.109-1.661-0.328   s-0.948-0.542-1.326-0.971s-0.675-0.966-0.889-1.613s-0.321-1.395-0.321-2.242s0.107-1.593,0.321-2.235s0.511-1.178,0.889-1.606   s0.82-0.754,1.326-0.978s1.06-0.335,1.661-0.335s1.155,0.111,1.661,0.335s0.948,0.549,1.326,0.978s0.675,0.964,0.889,1.606   s0.321,1.388,0.321,2.235S39.461,50.509,39.247,51.156z" fill="#006DF0"/>
</g>
<g>
</g>
<g>
</g>
<g>
</g>
<g>
</g>
<g>
</g>
<g>
</g>
<g>
</g>
<g>
</g>
<g>
</g>
<g>
</g>
<g>
</g>
<g>
</g>
<g>
</g>
<g>
</g>
<g>
</g>
</svg>
