<svg id="Layer_1" data-name="Layer 1" xmlns="http://www.w3.org/2000/svg" viewBox="0 0 407.66 240"><defs><style>.cls-1{fill:#ff6c2c;}</style></defs><title>cp-logo-RGB</title><path class="cls-1" d="M648.34,335.1h67.8l-10.5,40.2a25.41,25.41,0,0,1-9,13.5,24.31,24.31,0,0,1-15.3,5.1h-31.5a30.51,30.51,0,0,0-19,6.3,32.93,32.93,0,0,0-11.55,17.1,31.87,31.87,0,0,0-.45,15.3,33,33,0,0,0,5.85,12.75,30.23,30.23,0,0,0,10.8,8.85,31.69,31.69,0,0,0,14.4,3.3H669a10.81,10.81,0,0,1,8.85,4.35,10.42,10.42,0,0,1,2,9.75l-12,44.4h-21a84.78,84.78,0,0,1-39.75-9.45,89.7,89.7,0,0,1-30.15-25.05,88.45,88.45,0,0,1-15.3-76.5l1.2-4.5a88.7,88.7,0,0,1,31.65-47.25,89.93,89.93,0,0,1,25.05-13.35A87.08,87.08,0,0,1,648.34,335.1Z" transform="translate(-558.65 -276)"/><path class="cls-1" d="M682.54,516l59.1-221.4a25.39,25.39,0,0,1,9-13.5,24.31,24.31,0,0,1,15.3-5.1h62.7a84.78,84.78,0,0,1,39.75,9.45A89.21,89.21,0,0,1,915,346.05a83.84,83.84,0,0,1-1.2,40.95l-1.2,4.5a90,90,0,0,1-12,26.55,87.66,87.66,0,0,1-73.2,39.15h-54.3l10.8-40.5a25.37,25.37,0,0,1,9-13.2,24.32,24.32,0,0,1,15.3-5.1h17.4a31.56,31.56,0,0,0,30.6-23.7,29.43,29.43,0,0,0,.45-14.7,33.2,33.2,0,0,0-5.85-12.75,31.88,31.88,0,0,0-10.8-9,30.66,30.66,0,0,0-14.4-3.45H792l-43.8,162.9a25.42,25.42,0,0,1-9,13.2,23.88,23.88,0,0,1-15,5.1Z" transform="translate(-558.65 -276)"/><path class="cls-1" d="M919.83,308.31h-3.71v-28.6H906v-3.29h23.91v3.29h-10.1Z" transform="translate(-558.65 -276)"/><path class="cls-1" d="M948.84,308.31,938,280h-.17q.31,3.36.31,8v20.29h-3.42V276.42h5.58l10.1,26.31h.17l10.19-26.31h5.54v31.89H962.6V287.76q0-3.53.31-7.68h-.17l-10.91,28.23Z" transform="translate(-558.65 -276)"/></svg>