<?xml version="1.0" encoding="UTF-8" standalone="no"?>
<!-- Created with Inkscape (http://www.inkscape.org/) -->
<svg xmlns:osb="http://www.openswatchbook.org/uri/2009/osb" xmlns:dc="http://purl.org/dc/elements/1.1/" xmlns:cc="http://creativecommons.org/ns#" xmlns:rdf="http://www.w3.org/1999/02/22-rdf-syntax-ns#" xmlns:svg="http://www.w3.org/2000/svg" xmlns="http://www.w3.org/2000/svg" xmlns:sodipodi="http://sodipodi.sourceforge.net/DTD/sodipodi-0.dtd" xmlns:inkscape="http://www.inkscape.org/namespaces/inkscape" id="svg5340" version="1.1" inkscape:version="0.48.4 r9939" width="546.43524" height="650.94257" sodipodi:docname="Minecraftkub.svg">
  <metadata id="metadata5346">
    <rdf:RDF>
      <cc:Work rdf:about="">
        <dc:format>image/svg+xml</dc:format>
        <dc:type rdf:resource="http://purl.org/dc/dcmitype/StillImage"/>
        <dc:title/>
      </cc:Work>
    </rdf:RDF>
  </metadata>
  <defs id="defs5344">
    <linearGradient id="linearGradient10274" osb:paint="solid">
      <stop style="stop-color:#000000;stop-opacity:1;" offset="0" id="stop10276"/>
    </linearGradient>
  </defs>
  <sodipodi:namedview pagecolor="#ffffff" bordercolor="#666666" borderopacity="1" objecttolerance="10" gridtolerance="10" guidetolerance="10" inkscape:pageopacity="0" inkscape:pageshadow="2" inkscape:window-width="1920" inkscape:window-height="1018" id="namedview5342" showgrid="false" inkscape:object-paths="true" inkscape:snap-object-midpoints="true" inkscape:snap-intersection-paths="true" inkscape:object-nodes="true" inkscape:zoom="0.70710678" inkscape:cx="262.79501" inkscape:cy="192.42491" inkscape:window-x="1912" inkscape:window-y="-8" inkscape:window-maximized="1" inkscape:current-layer="svg5340" inkscape:snap-page="true" fit-margin-top="1" fit-margin-left="1" fit-margin-right="1" fit-margin-bottom="1"/>
  <path style="fill:#64a43a;fill-opacity:1;stroke:#64a43a;stroke-width:1px;stroke-linecap:butt;stroke-linejoin:miter;stroke-opacity:1" d="m 1.5,197.9182 16.98259,7.49853 0,-25.47945 16.98616,7.49389 0,25.50005 33.96875,15.01143 -0.007,25.49382 16.98259,7.50533 -0.007,-76.47045 17.00265,7.48092 -0.0303,50.98783 16.99641,7.50719 0.003,-25.47876 16.98524,7.48965 0.0117,51.00429 16.96828,7.4998 0.0692,-25.4694 16.91335,7.4822 0,25.4933 16.98259,7.50536 0,-25.49698 16.98259,7.5213 -0.01,-25.52243 17,7.51301 -0.008,25.50161 33.97635,15.00576 -0.0108,-25.50034 16.98259,7.50392 0,-50.99698 L 1.68787,121.4979 z" id="path3387" inkscape:connector-curvature="0"/>
  <path style="fill:#5b422d;fill-opacity:1;stroke:#5b422d;stroke-width:1px;stroke-linecap:butt;stroke-linejoin:miter;stroke-opacity:1" d="m 18.46912,179.94259 0,25.46875 -16.96875,-7.5 0,331.5 271.71875,120.03125 0,-356.9375 -16.96875,-7.5 0,25.5 -33.96875,-15 0,-25.53125 -17,-7.46875 0,25.5 -16.96875,-7.53125 0,25.5 -17,-7.5 0,-25.5 -16.96875,-7.5 0,25.5 -16.96875,-7.5 0,-51 -17,-7.5 0,25.46875 -17,-7.5 0.0312,-51 -17,-7.5 0,76.5 -16.9687,-7.5 0,-25.5 -33.96875,-15 0,-25.5 -17,-7.5 z" id="path3393" inkscape:connector-curvature="0"/>
  <path style="fill:#5a9a30;fill-opacity:1;stroke:#5a9a30;stroke-width:1px;stroke-linecap:butt;stroke-linejoin:miter;stroke-opacity:1" d="M 1.68787,121.4979 273.2153,241.5 544.70809,121.50784 273.18405,1.5 z" id="path3395" inkscape:connector-curvature="0"/>
  <path style="fill:#4f3624;fill-opacity:1;stroke:#4f3624;stroke-width:1px;stroke-linecap:butt;stroke-linejoin:miter;stroke-opacity:1" d="m 544.86223,172.44376 -17,7.5 0.0729,25.46758 -33.96875,15.03125 -0.0729,-25.4678 -16.8959,7.46802 0.003,25.49317 -17,7.5131 -0.003,25.4947 -16.96605,7.49762 -0.003,-25.49762 -16.98035,7.51021 -0.1999,25.57405 -16.7885,7.41574 0.003,-51.00117 -16.97947,7.53598 0.008,25.48267 -16.32368,7.21421 -0.65463,-50.70163 -16.98774,7.49883 -0.007,76.49518 -16.98259,7.50532 -0.0103,-25.49933 -33.96875,15.01909 0,-25.48784 -16.96875,7.5 0,25.48705 -16.96875,7.49921 0,331.45124 271.7161,-120.0625 z" id="path3416" inkscape:connector-curvature="0" sodipodi:nodetypes="ccccccccccccccccccccccccccccccc"/>
  <path style="fill:#3b6121;fill-opacity:1;stroke:#3b6121;stroke-width:1px;stroke-linecap:butt;stroke-linejoin:miter;stroke-opacity:1" d="m 544.70809,121.50784 0.15414,50.93592 -17,7.5 0.0729,25.46758 -33.96875,15.03125 -0.0729,-25.4678 -16.8959,7.46802 0.003,25.49317 -17,7.5131 -0.003,25.4947 -16.96605,7.49762 -0.003,-25.49762 -16.98035,7.51021 -0.1999,25.57406 -16.7885,7.41573 0.003,-51.00117 -16.97947,7.53598 0.008,25.48267 -16.32368,7.21421 -0.65463,-50.70163 -16.98774,7.49883 -0.007,76.49518 -16.98259,7.50532 -0.0103,-25.49933 -33.96875,15.01909 0,-25.48784 -16.96875,7.5 0,25.48705 -16.96875,7.49921 -0.004,-76.49135 z" id="path3418" inkscape:connector-curvature="0" sodipodi:nodetypes="ccccccccccccccccccccccccccccccc"/>
</svg>