<svg width="159" height="141" viewBox="0 0 159 141" fill="none" xmlns="http://www.w3.org/2000/svg">
<path d="M39.1945 0L35.1651 7.51227L4.02934 64.1291L0 71.275L4.02934 78.4208L35.1651 133.205L39.3776 140.718H47.9858H111.723H120.88L124.909 132.472L148.17 85.5666L158.609 64.3124H134.983L75.4585 64.4956C67.7176 64.3861 60.5977 71.4089 60.5977 79.1537C60.5977 86.8985 67.7176 93.9213 75.4585 93.8118L111.356 93.6286L102.565 111.401H56.4107L33.5168 71.0917L56.5939 29.3162H105.692L117.139 52.8149H146.626L128.036 8.24518L124.007 0H114.849H47.9858H39.1945Z" fill="#009900"/>
</svg>
