<svg version="1.1" class="clearos-svg clearfoundation app-vendor-burgess app-paid app-category-system app-sub-category-file" viewBox="0 0 400 400" preserveAspectRatio="xMinYMin" xmlns="http://www.w3.org/2000/svg" xmlns:xlink="http://www.w3.org/1999/xlink">
<g>
	<path fill="#686868" d="M160.524,175.589c15.149-17.398,37.443-28.408,62.328-28.408c8.195,0,16.104,1.22,23.58,3.446   C257.5,153.25,291.5,166,310.714,202.324c6.239-4.485,13.456-7.693,21.271-9.24c-4.524-27.96-28.771-49.312-58.015-49.312   c-5.553,0-10.922,0.787-16.012,2.229c0.992-4.274,1.526-8.725,1.526-13.304c0-32.464-26.319-58.784-58.782-58.784   c-32.467,0-58.783,26.319-58.783,58.784C141.919,149.62,149.078,164.862,160.524,175.589z"/>
	<path fill="#686868" d="M98.941,260.184c5.07-8.463,12.755-15.179,21.94-19.031c-0.411-3.049-0.633-6.155-0.633-9.317   c0-23.115,11.313-43.576,28.695-56.185c-6.329-2.953-13.384-4.609-20.829-4.609c-27.256,0-49.354,22.095-49.354,49.354   C78.763,236.727,86.711,251.203,98.941,260.184z"/>
	<path fill="#686868" d="M129.149,145.041c0-0.139-0.013-0.276-0.013-0.417c0-10.32,1.907-20.188,5.364-29.297   c-4.227-1.954-8.917-3.077-13.882-3.077c-18.352,0-33.228,14.876-33.228,33.226c0,6.034,1.64,11.675,4.445,16.552   C102.438,153.49,115.19,147.511,129.149,145.041z"/>
	<circle fill="#686868" cx="222.64" cy="243.448" r="82.639"/>
	<path fill="#686868" d="M128.952,258.904c-0.787-0.057-1.57-0.116-2.37-0.116c-18.352,0-33.227,14.875-33.227,33.228   c0,0.473,0.051,0.926,0.069,1.393c-16.298-12.357-28.082-30.717-31.63-52.498c-1.969-12.082-1.187-23.979,1.852-35.061   c-2.742,0.031-5.516,0.27-8.307,0.721c-30.188,4.914-50.671,33.369-45.754,63.554c4.917,30.188,33.371,50.67,63.556,45.756   c8.757-1.425,16.675-4.854,23.41-9.712c5.321,11.265,16.75,19.072,30.029,19.072c12.008-0.004,22.491-6.395,28.333-15.936   C140.932,296.409,131.433,278.748,128.952,258.904z"/>
	<path fill="#686868" d="M390.158,248.441c-5.688-29.691-34.363-49.153-64.061-43.475c-4.283,0.826-8.345,2.141-12.154,3.85   c1.896,5.272,3.416,10.77,4.504,16.453c5.335,27.867-0.521,55.276-14.404,77.613c11.836,8.666,27.094,12.598,42.639,9.616   C376.376,306.817,395.839,278.143,390.158,248.441z"/>
</g>
</svg>