<?xml version="1.0" encoding="UTF-8"?><svg xmlns="http://www.w3.org/2000/svg" xmlns:xlink="http://www.w3.org/1999/xlink" viewBox="0 0 48 48" version="1.1"><g id="surface1" fill="#D32F2F"><path d="M12 23c0 2.223-1.777 4-4 4s-4-1.777-4-4 1.777-4 4-4c2.223.148 4 1.93 4 4z"/><path d="M21 37c0 2.223-1.777 4-4 4s-4-1.777-4-4 1.777-4 4-4 4 1.777 4 4z"/><path d="M37 37c0 2.223-1.805 4-4.055 4-2.254 0-4.054-1.777-4.054-4s1.8-4 4.054-4C35.195 33 37 34.777 37 37z"/><path d="M44 23c0 2.223-1.777 4-3.996 4A3.984 3.984 0 0 1 36 23c0-2.223 1.777-4 4.004-4C42.223 19 44 20.926 44 23z"/><path d="M35 10c0 2.223-1.777 4-4 4s-4-1.777-4-4 1.777-4 4-4 4 1.777 4 4z"/><path d="M20 10c0 2.223-1.777 4-4 4s-4-1.777-4-4 1.777-4 4-4 4 1.777 4 4z"/><path d="M31 25.004C31 28.3 28.3 31 25 31s-6-2.7-6-5.996c0-3.3 2.7-5.996 6-5.996 3.3-.153 6 2.695 6 5.996z"/><path d="M14.207 13.578s4.238 2.082 4.824 3.254c.73 1.313 1.047 4.48.465 5.797-.73 1.754 8.008-3.336 6.106-3.629-2.778-.293-4.672-1.586-5.403-2.754-.73-1.168-.219-5.848-.219-5.848z"/></g><metadata><rdf:RDF xmlns:rdf="http://www.w3.org/1999/02/22-rdf-syntax-ns#" xmlns:rdfs="http://www.w3.org/2000/01/rdf-schema#" xmlns:dc="http://purl.org/dc/elements/1.1/"><rdf:Description about="https://iconscout.com/legal#licenses" dc:title="plesk" dc:description="plesk" dc:publisher="Iconscout" dc:date="2017-12-15" dc:format="image/svg+xml" dc:language="en"><dc:creator><rdf:Bag><rdf:li>Icons8</rdf:li></rdf:Bag></dc:creator></rdf:Description></rdf:RDF></metadata></svg>