<?xml version="1.0" ?><svg enable-background="new 0 0 292.794 294.763" id="Calque_1" version="1.1" viewBox="0 0 292.794 294.763" xml:space="preserve" xmlns="http://www.w3.org/2000/svg" xmlns:xlink="http://www.w3.org/1999/xlink"><path d="M95.534,223c2.282-1.016,4.595-1.95,6.93-2.827c2.635-0.99,5.291-1.921,7.983-2.732  c3.351-1.01,6.73-1.923,10.154-2.65c4.616-0.98,9.289-1.707,13.996-2.164c-2.64,8.301-5.557,16.553-8.719,24.753  c0.136,1.588,0.209,3.186,0.251,4.788c6.366-1.256,12.942-1.929,19.677-1.929s13.31,0.673,19.677,1.929  c0.042-1.602,0.114-3.2,0.251-4.788c-3.163-8.2-6.079-16.453-8.719-24.753c4.707,0.457,9.38,1.183,13.996,2.164  c3.424,0.727,6.802,1.64,10.154,2.65c2.693,0.811,5.349,1.742,7.984,2.732c2.335,0.878,4.649,1.812,6.931,2.828  c16.194,7.212,30.958,17.91,43.066,31.791c30.349-26.208,49.584-64.938,49.584-108.184c0-78.934-63.989-142.923-142.923-142.923  C66.87,3.685,2.881,67.674,2.881,146.608c0,43.246,19.235,81.976,49.584,108.184C64.574,240.91,79.339,230.212,95.534,223z" fill="#A0DBE8"/><path d="M104.953,248.858c6.709-2.967,13.794-5.234,21.174-6.689c-0.042-1.602-0.114-3.2-0.251-4.788  c3.163-8.2,6.079-16.453,8.719-24.753c-4.707,0.457-9.38,1.183-13.996,2.164c-3.424,0.727-6.803,1.64-10.154,2.65  c-2.692,0.811-5.348,1.742-7.983,2.732l10.418,2.524L104.953,248.858z" fill="#525353"/><path d="M80.393,264.267c0.26-2.663,0.42-5.35,0.42-8.065c0-1.633,1.324-2.958,2.958-2.958h2.597l9.166-30.243  c-16.195,7.212-30.96,17.91-43.069,31.792c6.675,5.764,13.883,10.918,21.55,15.382C76.056,268.117,78.182,266.144,80.393,264.267z" fill="#525353"/><path d="M196.076,223.001l9.166,30.242h2.595c1.634,0,2.958,1.325,2.958,2.958c0,2.716,0.16,5.402,0.42,8.065  c2.211,1.877,4.337,3.85,6.379,5.908c7.667-4.464,14.875-9.618,21.55-15.382C227.035,240.911,212.271,230.213,196.076,223.001z" fill="#525353"/><path d="M178.728,222.697l10.417-2.524c-2.635-0.99-5.291-1.921-7.984-2.732c-3.351-1.01-6.73-1.923-10.154-2.65  c-4.616-0.98-9.289-1.707-13.996-2.164c2.64,8.301,5.557,16.553,8.719,24.753c-0.136,1.588-0.208,3.186-0.251,4.788  c7.382,1.456,14.467,3.723,21.177,6.691L178.728,222.697z" fill="#525353"/><path d="M145.805,253.243h20.139c-0.413-3.711-0.561-7.409-0.464-11.075c-6.366-1.256-12.942-1.929-19.677-1.929  s-13.31,0.673-19.677,1.929c0.097,3.666-0.051,7.364-0.464,11.075H145.805z"/><path d="M74.015,270.174c1.661,0.967,3.337,1.91,5.039,2.811c0.597-2.864,1.051-5.772,1.34-8.719  C78.182,266.144,76.056,268.117,74.015,270.174z"/><path d="M103.624,253.243h22.039c0.413-3.711,0.561-7.409,0.464-11.075c-7.381,1.456-14.465,3.723-21.174,6.689L103.624,253.243z"/><path d="M211.214,264.267c0.288,2.947,0.743,5.854,1.34,8.719c1.702-0.901,3.378-1.844,5.039-2.811  C215.552,268.117,213.425,266.144,211.214,264.267z"/><path d="M187.986,253.243l-1.329-4.384c-6.71-2.967-13.795-5.235-21.177-6.691c-0.097,3.666,0.051,7.364,0.464,11.075H187.986z"/><path d="M103.624,253.243l1.329-4.385l7.929-26.161l-10.418-2.524c-2.334,0.877-4.648,1.811-6.93,2.827  l-9.166,30.243h9.841H103.624z" fill="#AA9678"/><path d="M186.657,248.859l1.329,4.384h7.413h9.843l-9.166-30.242c-2.282-1.016-4.596-1.95-6.931-2.828l-10.417,2.524  L186.657,248.859z" fill="#AA9678"/><path d="M86.669,259.351c0.09-0.065,0.181-0.128,0.271-0.193h-0.26C86.678,259.223,86.672,259.287,86.669,259.351z" fill="#C0B098"/><path d="M145.804,259.159h-21.027h-22.946H86.94c-0.09,0.065-0.181,0.128-0.271,0.193  c-0.198,5.586-0.945,11.061-2.158,16.389c18.577,8.834,39.354,13.791,61.293,13.791L145.804,259.159L145.804,259.159z" fill="#C0B098"/><path d="M204.927,259.159h-0.26c0.09,0.065,0.181,0.128,0.271,0.193  C204.936,259.287,204.929,259.223,204.927,259.159z" fill="#AA9678"/><path d="M204.667,259.159h-14.889h-22.947h-21.026h-0.001v30.372c21.939,0,42.716-4.957,61.293-13.791  c-1.214-5.328-1.961-10.803-2.159-16.389C204.849,259.286,204.757,259.223,204.667,259.159z" fill="#AA9678"/><rect fill="#786453" height="2.958" width="0.001" x="145.804" y="256.201"/><path d="M211.214,264.267c-0.26-2.663-0.42-5.35-0.42-8.065c0-1.633-1.324-2.958-2.958-2.958h-2.595h-9.843h-7.413  h-22.042h-20.139h-20.142h-22.039h-7.415h-9.841H83.77c-1.634,0-2.958,1.325-2.958,2.958c0,2.716-0.16,5.402-0.42,8.065  c-0.288,2.947-0.743,5.854-1.34,8.719c1.799,0.952,3.614,1.878,5.457,2.755c1.213-5.328,1.961-10.803,2.158-16.389  c0.002-0.065,0.009-0.128,0.011-0.193h0.26h14.891h22.945h21.027h0.001h21.026h22.948h14.889h0.26  c0.002,0.065,0.009,0.128,0.011,0.193c0.198,5.586,0.945,11.061,2.159,16.389c1.844-0.877,3.658-1.803,5.457-2.755  C211.957,270.121,211.503,267.214,211.214,264.267z" fill="#8B7460"/><g><path d="M193.905,124.891L193.905,124.891c0.004,0.012,0.008,0.023,0.012,0.035c1.788,5.137,3.816,10.339,4.859,15.692   c-0.036,0.372-0.073,0.757-0.111,1.153c-0.094,0.575-0.189,1.085-0.287,1.544c0.15-0.705,0.297-1.544,0.44-2.52   C197.783,135.367,195.716,130.096,193.905,124.891c-0.006,0.012-0.013,0.026-0.019,0.039   C193.892,124.917,193.899,124.903,193.905,124.891L193.905,124.891z" fill="none"/><path d="M235.526,157.201c-0.079,0.046-0.158,0.087-0.239,0.127C235.368,157.289,235.447,157.246,235.526,157.201z" fill="none"/><path d="M236.447,156.503c-0.104,0.098-0.205,0.204-0.313,0.291C236.243,156.707,236.343,156.6,236.447,156.503z" fill="none"/><path d="M189.605,121.13c-3.285-2.772-6.74-5.3-10.363-7.531l0,0C182.865,115.829,186.319,118.358,189.605,121.13z" fill="none"/><path d="M222.752,155.382c0.025,0.031,0.05,0.061,0.076,0.092C222.802,155.444,222.777,155.413,222.752,155.382z" fill="none"/><path d="M228.806,162.931c0.096,0.123,0.194,0.245,0.29,0.368C228.999,163.176,228.903,163.054,228.806,162.931z" fill="none"/><path d="M198.334,143.515c-0.096,0.432-0.193,0.817-0.291,1.109C198.141,144.332,198.239,143.944,198.334,143.515z" fill="none"/><path d="M184.323,195.651c-2.186,3.645-3.587,7.098-4.399,10.339C180.736,202.749,182.137,199.297,184.323,195.651   c0.72-1.2,1.423-2.376,2.108-3.533c-0.679,1.147-1.377,2.313-2.09,3.503C184.335,195.631,184.33,195.641,184.323,195.651z" fill="none"/><path d="M193.919,124.865c0.128-0.257,0.259-0.503,0.387-0.758l-0.034,0.029c-0.12,0.238-0.236,0.485-0.355,0.727   c0.862,0.746,1.714,1.503,2.555,2.272C195.632,126.367,194.78,125.61,193.919,124.865z" fill="none"/><path d="M165.55,143.628c0.003,0.01,0.007,0.019,0.011,0.029C165.557,143.647,165.553,143.638,165.55,143.628z" fill="none"/><path d="M164.479,141.228l0.001,0.001L164.479,141.228z" fill="none"/><path d="M174.159,110.69c-0.198-0.11-0.351-0.194-0.441-0.24C173.808,110.497,173.961,110.58,174.159,110.69z" fill="none"/><path d="M174.884,111.096c-0.23-0.13-0.426-0.239-0.606-0.339C174.458,110.857,174.652,110.966,174.884,111.096z" fill="none"/><path d="M179.574,122.613c0.004,0.336-0.005,0.673-0.004,1.009C179.569,123.286,179.578,122.95,179.574,122.613z" fill="none"/><path d="M165.067,142.389c0.004,0.008,0.008,0.016,0.012,0.024C165.076,142.405,165.071,142.397,165.067,142.389z" fill="none"/><path d="M234.638,170.478c0.178,0.233,0.358,0.464,0.534,0.697C234.995,170.942,234.816,170.711,234.638,170.478z" fill="none"/><path d="M179.556,127.117c-0.029,1.5-0.08,3-0.158,4.499C179.475,130.117,179.527,128.617,179.556,127.117z" fill="none"/><path d="M165.91,144.922c0.002,0.011,0.006,0.022,0.008,0.034C165.916,144.944,165.913,144.934,165.91,144.922z" fill="none"/><path d="M178.977,113.429c-0.523-0.3-1.89-1.083-3.125-1.785C177.069,112.336,178.425,113.112,178.977,113.429z" fill="none"/><path d="M175.774,111.6c-0.31-0.175-0.604-0.342-0.875-0.495C175.169,111.257,175.466,111.425,175.774,111.6z" fill="none"/><path d="M179.206,113.56L179.206,113.56c-0.009-0.005-0.069-0.039-0.094-0.054   C179.151,113.528,179.194,113.553,179.206,113.56z" fill="none"/><path d="M239.416,148.282c0.002-0.113,0.02-0.219,0.021-0.333c0-0.014,0.002-0.028,0.002-0.042   c0-0.013-0.002-0.025-0.002-0.038c0-0.107-0.017-0.205-0.019-0.311c0.002,0.119,0.021,0.229,0.021,0.349   C239.438,148.035,239.418,148.154,239.416,148.282z" fill="none"/><path d="M216.017,147.394c0.137,0.157,0.271,0.316,0.408,0.473c-0.002-0.003-0.005-0.005-0.007-0.008h0.035   c-0.059-0.069-0.214-0.233-0.433-0.464L216.017,147.394z" fill="none"/><path d="M196.473,127.136c1.903,1.741,3.762,3.528,5.6,5.338C200.236,130.663,198.375,128.877,196.473,127.136z" fill="none"/><path d="M233.686,138.05c0.351,0,0.69,0.074,1.024,0.177C234.377,138.122,234.037,138.05,233.686,138.05z" fill="none"/><path d="M228.191,145.15c-0.03,0.17-0.067,0.333-0.091,0.506C228.123,145.483,228.162,145.321,228.191,145.15z" fill="none"/><path d="M235.015,138.34c0.235,0.096,0.463,0.221,0.686,0.365C235.478,138.56,235.25,138.438,235.015,138.34z" fill="none"/><path d="M237.204,140.16c0.076,0.103,0.151,0.209,0.225,0.318C237.355,140.368,237.28,140.263,237.204,140.16z" fill="none"/><path d="M239.311,145.857c-0.003-0.023-0.009-0.044-0.012-0.067c-0.005-0.038-0.016-0.072-0.021-0.11   c0.008,0.064,0.026,0.122,0.033,0.186C239.311,145.863,239.311,145.86,239.311,145.857z" fill="none"/><path d="M239.297,150.03c0.004-0.028,0.011-0.053,0.015-0.08c0-0.003,0-0.006,0.001-0.008   c-0.009,0.074-0.029,0.141-0.039,0.215C239.279,150.113,239.292,150.074,239.297,150.03z" fill="none"/><path d="M229.943,140.479c0.074-0.11,0.149-0.217,0.227-0.32C230.092,140.263,230.017,140.368,229.943,140.479z" fill="none"/><path d="M232.662,138.227c0.334-0.103,0.673-0.177,1.024-0.177C233.335,138.05,232.995,138.122,232.662,138.227z" fill="none"/><path d="M207.278,137.781c-0.879-0.924-1.774-1.832-2.668-2.742C205.504,135.948,206.397,136.858,207.278,137.781z" fill="none"/><path d="M233.686,106.799L233.686,106.799c0-0.01,0-0.04,0-0.04v13.291l-5.091,23.31   c-0.017,0.057-0.024,0.123-0.04,0.181c0.013-0.046,0.028-0.089,0.042-0.134l0,0h-0.001l5.091-23.31v-13.291h-0.001L233.686,106.799   L233.686,106.799z" fill="none"/><path d="M212.037,142.915c-0.464-0.513-0.93-1.024-1.397-1.534C211.108,141.891,211.573,142.403,212.037,142.915z" fill="none"/><path d="M238.775,143.406c0.056,0.185,0.125,0.357,0.174,0.548c-0.001-0.003-0.001-0.006-0.002-0.008   c-0.049-0.188-0.115-0.356-0.171-0.538h-0.001V143.406z" fill="none"/><path d="M227.933,147.86h0.005c0-0.093,0.014-0.179,0.016-0.271C227.952,147.681,227.933,147.766,227.933,147.86z" fill="none"/><path d="M231.67,138.706c0.223-0.144,0.451-0.269,0.687-0.365C232.122,138.438,231.893,138.56,231.67,138.706z" fill="none"/><path d="M230.629,139.585c0.237-0.256,0.481-0.492,0.74-0.688C231.111,139.095,230.865,139.327,230.629,139.585z" fill="none"/><path d="M238.951,151.855c0.001-0.002,0.001-0.005,0.002-0.008c-0.129,0.506-0.283,0.988-0.458,1.445   c0.179-0.463,0.343-0.945,0.475-1.458l-0.019,0.022V151.855z" fill="none"/><path d="M64.772,143.488c0.209-0.332,0.428-0.657,0.641-0.987C65.2,142.831,64.981,143.155,64.772,143.488z" fill="none"/><path d="M236.004,138.898c0.258,0.195,0.502,0.432,0.739,0.687C236.507,139.327,236.261,139.095,236.004,138.898z" fill="none"/><path d="M68.825,137.535c0.104-0.141,0.2-0.288,0.305-0.428C69.025,137.247,68.928,137.394,68.825,137.535z" fill="none"/><path d="M166.243,147.79l0.005-0.002c0-0.008-0.001-0.015-0.001-0.022h0.001h0.023l-0.033-0.076   C166.238,147.723,166.242,147.756,166.243,147.79z" fill="none"/><path d="M58.562,154.877c-0.246,0.523-0.491,1.044-0.727,1.57C58.072,155.922,58.316,155.399,58.562,154.877z" fill="none"/><path d="M55.435,162.177c-0.033,0.086-0.069,0.17-0.102,0.256C55.366,162.347,55.402,162.263,55.435,162.177z" fill="none"/><path d="M237.226,110.19c-0.004-0.005-0.008-0.01-0.012-0.014l0.001,0.001   C237.219,110.181,237.223,110.186,237.226,110.19z" fill="none"/><polygon fill="none" points="83.672,121.505 83.662,121.515 83.672,121.506  "/><path d="M78.079,126.706c0.282-0.284,0.572-0.56,0.858-0.84C78.651,126.146,78.362,126.422,78.079,126.706z" fill="none"/><path d="M73.04,132.212c0.288-0.34,0.574-0.682,0.866-1.018C73.613,131.531,73.328,131.872,73.04,132.212z" fill="none"/><polygon fill="none" points="238.777,143.409 233.686,120.097 238.777,143.408  "/><path d="M150.02,161.063c-0.096-0.02-0.187-0.05-0.282-0.072C149.833,161.012,149.924,161.043,150.02,161.063z" fill="none"/><path d="M151.383,161.276c-0.108-0.011-0.212-0.035-0.319-0.049C151.171,161.241,151.275,161.264,151.383,161.276z" fill="none"/><path d="M61.694,148.717c-0.322,0.584-0.625,1.176-0.936,1.766C61.07,149.894,61.373,149.301,61.694,148.717z" fill="none"/><path d="M146.216,159.634c-0.006-0.003-0.011-0.007-0.017-0.011C146.205,159.627,146.21,159.631,146.216,159.634z" fill="none"/><path d="M148.697,160.714c-0.063-0.02-0.123-0.047-0.185-0.068C148.574,160.667,148.634,160.693,148.697,160.714z" fill="none"/><path d="M147.426,160.235c-0.032-0.014-0.062-0.031-0.093-0.045C147.364,160.205,147.394,160.221,147.426,160.235z" fill="none"/><path d="M140.316,152.966c0.004,0.011,0.007,0.022,0.012,0.032C140.323,152.988,140.32,152.977,140.316,152.966z" fill="none"/><path d="M139.68,144.815c-0.023,0.099-0.055,0.195-0.076,0.295C139.626,145.01,139.657,144.914,139.68,144.815z" fill="none"/><path d="M141.073,141.247c-0.007,0.014-0.016,0.027-0.024,0.04C141.057,141.273,141.065,141.26,141.073,141.247z" fill="none"/><path d="M145.539,136.544c-0.002,0.001-0.005,0.002-0.006,0.004C145.534,136.546,145.536,136.545,145.539,136.544z" fill="none"/><path d="M140.033,143.572c-0.024,0.07-0.053,0.138-0.076,0.209C139.979,143.71,140.01,143.643,140.033,143.572z" fill="none"/><path d="M140.497,142.385c-0.018,0.04-0.039,0.078-0.057,0.119C140.458,142.463,140.48,142.425,140.497,142.385z" fill="none"/><path d="M155.427,134.68c-0.021-0.004-0.042-0.006-0.063-0.01C155.385,134.675,155.406,134.676,155.427,134.68z" fill="none"/><path d="M157.875,135.421c-0.013-0.005-0.026-0.009-0.039-0.014C157.849,135.412,157.863,135.416,157.875,135.421z" fill="none"/><path d="M147.791,135.383c-0.02,0.008-0.041,0.014-0.061,0.022C147.75,135.398,147.771,135.391,147.791,135.383z" fill="none"/><path d="M150.244,134.664c-0.029,0.006-0.059,0.008-0.088,0.013C150.184,134.672,150.215,134.67,150.244,134.664z" fill="none"/><path d="M166.144,146.282c0.001,0.006,0.002,0.012,0.003,0.019C166.146,146.295,166.144,146.289,166.144,146.282z" fill="none"/><path d="M152.856,104.55c0-0.208,0-0.407,0-0.584C152.856,104.145,152.856,104.338,152.856,104.55z" fill="none"/><path d="M152.856,103.612c0-0.136,0-0.258,0-0.353C152.856,103.356,152.856,103.471,152.856,103.612z" fill="none"/><path d="M152.856,103.068c0-0.048-0.001-0.075-0.001-0.075S152.856,103.019,152.856,103.068z" fill="none"/><path d="M152.856,106.35v-0.206v-0.597c0-0.196-0.001-0.388-0.001-0.574   C152.856,105.408,152.856,105.877,152.856,106.35z" fill="none"/><path d="M237.631,155.049c-0.144,0.234-0.301,0.443-0.46,0.65C237.33,155.493,237.486,155.282,237.631,155.049z" fill="none"/><path d="M139.438,146.158c-0.013,0.108-0.038,0.212-0.049,0.32C139.401,146.37,139.425,146.266,139.438,146.158z" fill="none"/><path d="M139.572,150.485c0.004,0.017,0.005,0.036,0.008,0.053C139.577,150.521,139.576,150.502,139.572,150.485z" fill="none"/><path d="M238.345,153.647c-0.138,0.329-0.29,0.638-0.45,0.935C238.056,154.286,238.206,153.975,238.345,153.647z" fill="none"/><path d="M186.726,232.849c-0.431-0.496-0.876-1.026-1.337-1.629C185.851,231.823,186.295,232.353,186.726,232.849   L186.726,232.849z" fill="#525353"/><path d="M190.014,236.113c0,0,0.011,0.033,0.03,0.093C190.024,236.146,190.014,236.113,190.014,236.113   s-1.449-1.148-3.288-3.264l0,0C188.565,234.965,190.014,236.113,190.014,236.113z" fill="#AA9678"/><ellipse cx="233.667" cy="106.818" fill="#FFFFFF" rx="0.003" ry="0.004" transform="matrix(0.9968 -0.0797 0.0797 0.9968 -7.7702 18.9634)"/><path d="M239.437,147.949c0-0.014,0.002-0.028,0.002-0.042l0,0C239.439,147.921,239.437,147.935,239.437,147.949z" fill="#FFFFFF"/><path d="M240.965,114.802l-0.001-0.001L240.965,114.802c-0.024-0.032-0.048-0.061-0.071-0.093l0.002,0.001   c-1.188-1.649-2.413-3.154-3.669-4.52c-0.004-0.004-0.007-0.009-0.011-0.013c0.004,0.004,0.008,0.009,0.011,0.013   c-0.011-0.012-0.022-0.026-0.033-0.038v0.001c-0.571-0.619-1.148-1.211-1.732-1.77c-0.221-0.211-0.448-0.397-0.671-0.598   c-0.368-0.334-0.733-0.678-1.105-0.984v0.007v13.291l5.091,23.312v-0.001c0.055,0.182,0.122,0.35,0.171,0.538l3.527,3.952   l0.035-0.039h3.69c0.005-0.342,0.026-0.68,0.026-1.023v-0.006c-0.001-10.995-1.807-21.56-5.08-31.458v0.001   C241.083,115.184,241.029,114.991,240.965,114.802z" fill="#BBBCBD"/><path d="M239.439,147.907c0-0.013-0.002-0.025-0.002-0.038C239.437,147.881,239.439,147.894,239.439,147.907   L239.439,147.907z" fill="#BBBCBD"/><path d="M239.278,145.68c0.005,0.038,0.016,0.072,0.021,0.11c0.003,0.023,0.009,0.044,0.012,0.067   c0,0.003,0,0.006,0.001,0.009c0.067,0.547,0.094,1.116,0.106,1.692c0.002,0.106,0.019,0.204,0.019,0.311   c0,0.013,0.002,0.025,0.002,0.038c0,0.015-0.002,0.028-0.002,0.042c-0.001,0.114-0.018,0.22-0.021,0.333   c-0.013,0.564-0.038,1.123-0.104,1.659c-0.001,0.003-0.001,0.006-0.001,0.008c-0.004,0.028-0.011,0.053-0.015,0.08   c-0.005,0.044-0.018,0.083-0.024,0.126c-0.08,0.584-0.183,1.152-0.32,1.691c-0.001,0.002-0.001,0.005-0.002,0.008v0.001   l0.019-0.022c0.002-0.009,0.006-0.017,0.008-0.027v0.001l3.496-3.911l-3.527-3.952c0.001,0.003,0.001,0.006,0.002,0.008   C239.09,144.504,239.197,145.083,239.278,145.68z" fill="#676A6A"/><path d="M239.273,150.156c0.011-0.074,0.031-0.141,0.039-0.215c0.066-0.536,0.091-1.095,0.104-1.659   c0.002-0.127,0.022-0.247,0.022-0.375c0-0.12-0.018-0.231-0.021-0.349c-0.012-0.576-0.039-1.145-0.106-1.692   c-0.008-0.064-0.025-0.122-0.033-0.186c-0.081-0.597-0.188-1.176-0.328-1.725c-0.049-0.192-0.118-0.363-0.174-0.548   c-0.338-1.119-0.8-2.107-1.346-2.928c-0.074-0.109-0.149-0.216-0.225-0.318c-0.149-0.202-0.301-0.399-0.461-0.575   c-0.236-0.256-0.481-0.492-0.739-0.687c-0.098-0.075-0.202-0.127-0.303-0.192c-0.223-0.144-0.451-0.269-0.686-0.365   c-0.101-0.041-0.202-0.081-0.305-0.114c-0.334-0.103-0.673-0.177-1.024-0.177c-0.351,0-0.691,0.074-1.024,0.177   c-0.103,0.032-0.204,0.072-0.305,0.114c-0.236,0.096-0.464,0.221-0.687,0.365c-0.1,0.065-0.204,0.117-0.301,0.192   c-0.259,0.196-0.503,0.432-0.74,0.688c-0.16,0.176-0.311,0.372-0.46,0.573c-0.077,0.103-0.152,0.211-0.227,0.32   c-0.547,0.821-1.009,1.809-1.346,2.928c-0.014,0.045-0.029,0.088-0.042,0.134c-0.149,0.513-0.265,1.055-0.363,1.609   c-0.029,0.17-0.068,0.332-0.091,0.506c-0.089,0.621-0.134,1.268-0.146,1.932c-0.002,0.092-0.016,0.178-0.016,0.271h0.023   c0,5.444,2.576,9.857,5.753,9.857c0.547,0,1.073-0.143,1.574-0.388c0.08-0.04,0.16-0.081,0.239-0.127   c0.208-0.119,0.412-0.25,0.608-0.407c0.108-0.087,0.209-0.193,0.313-0.291c0.254-0.237,0.495-0.505,0.724-0.803   c0.158-0.208,0.315-0.416,0.46-0.65c0.093-0.148,0.178-0.309,0.264-0.467c0.16-0.297,0.312-0.606,0.45-0.935   c0.05-0.118,0.103-0.233,0.15-0.355c0.175-0.457,0.329-0.939,0.458-1.445C239.09,151.308,239.193,150.741,239.273,150.156z    M233.892,146.594c-1.191,0-2.157-1.655-2.157-3.696c0-2.041,0.966-3.696,2.157-3.696c1.192,0,2.157,1.655,2.157,3.696   C236.049,144.939,235.084,146.594,233.892,146.594z"/><ellipse cx="233.892" cy="142.898" fill="#FFFFFF" rx="2.157" ry="3.696"/><path d="M228.597,143.407L228.597,143.407c0.338-1.119,0.8-2.107,1.346-2.929c0.074-0.111,0.149-0.216,0.227-0.32   c0.149-0.201,0.3-0.398,0.46-0.573c0.236-0.259,0.482-0.49,0.74-0.688c0.097-0.075,0.202-0.126,0.301-0.192   c0.223-0.146,0.451-0.268,0.687-0.365c0.101-0.042,0.202-0.081,0.305-0.114c0.333-0.104,0.672-0.177,1.024-0.177   c0.351,0,0.691,0.073,1.024,0.177c0.103,0.032,0.204,0.072,0.305,0.114c0.235,0.097,0.463,0.219,0.686,0.365   c0.101,0.066,0.205,0.117,0.303,0.192c0.257,0.198,0.503,0.429,0.739,0.687c0.161,0.176,0.312,0.373,0.461,0.575   c0.076,0.104,0.151,0.208,0.225,0.318c0.547,0.821,1.008,1.809,1.346,2.928l0.001,0.002h0.001l-5.091-23.311l-5.091,23.31   L228.597,143.407L228.597,143.407z" fill="#909393"/><path d="M166.237,147.689c-0.007-0.469-0.038-0.932-0.091-1.388c-0.001-0.006-0.002-0.012-0.003-0.019   c-0.053-0.449-0.128-0.892-0.225-1.327c-0.002-0.011-0.006-0.022-0.008-0.034c-0.097-0.43-0.213-0.852-0.349-1.266   c-0.004-0.01-0.008-0.019-0.011-0.029c-0.138-0.414-0.295-0.819-0.471-1.214c-0.004-0.008-0.008-0.016-0.012-0.024   c-0.178-0.397-0.374-0.784-0.588-1.16l-0.001-0.001c-0.654-1.145-1.471-2.186-2.42-3.089c-1.205-1.148-2.621-2.075-4.184-2.718   c-0.012-0.005-0.026-0.009-0.039-0.014c-0.77-0.314-1.576-0.56-2.41-0.727c-0.021-0.004-0.042-0.006-0.063-0.01   c-0.836-0.164-1.698-0.254-2.583-0.254c-0.869,0-1.716,0.089-2.538,0.247c-0.029,0.006-0.059,0.008-0.088,0.013   c-0.818,0.163-1.608,0.402-2.365,0.706c-0.02,0.008-0.041,0.014-0.061,0.022c-0.768,0.313-1.502,0.694-2.192,1.138   c-0.002,0.001-0.005,0.002-0.006,0.004c-0.696,0.448-1.349,0.958-1.95,1.522l-0.015,0.046l-0.049,0.012   c-0.96,0.911-1.784,1.962-2.444,3.119c-0.008,0.014-0.016,0.027-0.024,0.04c-0.201,0.356-0.383,0.723-0.552,1.098   c-0.018,0.04-0.039,0.078-0.057,0.119c-0.153,0.348-0.284,0.706-0.407,1.069c-0.023,0.07-0.054,0.138-0.076,0.209   c-0.108,0.337-0.195,0.685-0.277,1.033c-0.023,0.099-0.055,0.195-0.076,0.295c-0.072,0.344-0.121,0.695-0.166,1.048   c-0.013,0.108-0.038,0.212-0.049,0.32c-0.048,0.462-0.074,0.93-0.074,1.404c0,0.891,0.091,1.76,0.257,2.602   c0.004,0.017,0.005,0.036,0.008,0.053c0.169,0.841,0.417,1.652,0.736,2.428c0.004,0.01,0.007,0.022,0.012,0.032   c0.648,1.57,1.585,2.992,2.743,4.199c0.915,0.954,1.969,1.773,3.128,2.427c0.006,0.003,0.011,0.007,0.017,0.011   c0.362,0.203,0.736,0.386,1.117,0.556c0.032,0.014,0.062,0.031,0.093,0.045c0.353,0.154,0.717,0.287,1.086,0.41   c0.062,0.021,0.122,0.048,0.185,0.068c0.34,0.109,0.69,0.195,1.041,0.277c0.095,0.022,0.186,0.052,0.282,0.072   c0.342,0.072,0.692,0.119,1.044,0.164c0.107,0.014,0.211,0.038,0.319,0.049c0.46,0.048,0.926,0.073,1.399,0.073   c1.859,0,3.631-0.377,5.242-1.058c0.805-0.341,1.571-0.757,2.287-1.242c1.433-0.968,2.669-2.204,3.638-3.637   c0.484-0.716,0.9-1.482,1.241-2.287c0.681-1.611,1.058-3.382,1.058-5.241c0-0.031-0.005-0.062-0.005-0.093l0,0   C166.242,147.756,166.238,147.723,166.237,147.689L166.237,147.689z M152.781,146.111c-2.794,0-5.059-2.265-5.059-5.059   c0-2.794,2.265-5.059,5.059-5.059c2.794,0,5.059,2.265,5.059,5.059C157.84,143.846,155.575,146.111,152.781,146.111z"/><circle cx="152.781" cy="141.052" fill="#FFFFFF" r="5.059"/><path d="M143.517,138.127L143.517,138.127l0.049-0.012l0.015-0.046l0,0l9.274-28.362c0,0,0-1.678,0-3.357   c-0.001-0.473-0.001-0.941-0.001-1.376c0-0.144,0-0.289,0-0.423c0-0.212,0-0.405,0-0.584c0-0.126,0-0.248,0-0.353   c0-0.141,0-0.256,0-0.353c0-0.079,0-0.147,0-0.191c0-0.049-0.001-0.075-0.001-0.075c-5.165-1.058-10.476-1.641-15.911-1.641   c-1.815,0-3.614,0.077-5.403,0.198c-0.261,0.017-0.522,0.034-0.783,0.054c-9.309,0.707-18.476,3.133-26.964,7.009   c-7.28,3.324-14.043,7.701-20.122,12.893l0,0c-0.004,0.003-0.007,0.006-0.011,0.009c-1.633,1.387-3.196,2.851-4.725,4.35   c-0.285,0.28-0.576,0.556-0.858,0.84c-1.439,1.449-2.829,2.948-4.173,4.489c-0.293,0.336-0.578,0.678-0.866,1.018   c-1.349,1.593-2.664,3.216-3.91,4.894c-0.104,0.141-0.201,0.287-0.305,0.428c-1.189,1.618-2.321,3.278-3.411,4.966   c-0.213,0.329-0.432,0.655-0.641,0.987c-0.882,1.399-1.703,2.837-2.518,4.277h42.174h0.074L143.517,138.127z" fill="#BBBCBD"/><path d="M179.184,134.935c0.086-1.106,0.156-2.212,0.214-3.319c0.077-1.499,0.129-2.999,0.158-4.499   c0.022-1.164,0.019-2.329,0.015-3.494c-0.002-0.336,0.007-0.672,0.004-1.009c-0.031-3.003-0.148-6.008-0.332-9.015l0,0l0,0   c-0.008-0.005-0.016-0.011-0.025-0.016c-0.004-0.008-0.008-0.015-0.012-0.022c-0.012-0.007-0.055-0.031-0.094-0.054   c-0.036-0.021-0.067-0.039-0.134-0.077c-0.552-0.317-1.908-1.093-3.125-1.785c-0.026-0.014-0.052-0.03-0.077-0.044   c-0.308-0.175-0.605-0.343-0.875-0.495c-0.005-0.003-0.011-0.006-0.016-0.009c-0.232-0.13-0.426-0.239-0.606-0.339   c-0.036-0.02-0.086-0.048-0.119-0.067c-0.198-0.11-0.351-0.194-0.441-0.24c-1.943-1.008-3.924-1.94-5.94-2.791   c-4.804-2.029-11.276-3.807-14.922-4.666v2.554v0.597v0.206c0,1.678,0,3.357,0,3.357l9.192,28.409l0.011,0.024   c0.948,0.904,1.766,1.944,2.42,3.089l0.001,0.001c0.214,0.376,0.41,0.763,0.588,1.16c0.004,0.008,0.008,0.016,0.012,0.024   c0.176,0.395,0.333,0.8,0.471,1.214c0.003,0.01,0.007,0.019,0.011,0.029c0.137,0.413,0.253,0.836,0.349,1.266   c0.002,0.011,0.006,0.022,0.008,0.034c0.097,0.435,0.172,0.877,0.225,1.327c0.001,0.006,0.002,0.012,0.003,0.019   c0.053,0.456,0.084,0.919,0.091,1.388l0,0l0.033,0.076h11.256c0.761-4.119,1.291-8.293,1.627-12.485   C179.162,135.165,179.175,135.05,179.184,134.935z" fill="#E2DDDB"/><path d="M193.905,124.89c-0.006,0.013-0.013,0.027-0.019,0.04c0.006-0.013,0.013-0.026,0.02-0.039L193.905,124.89z" fill="#FBB040"/><path d="M166.334,188.246c2.553-2.54,4.965-4.975,7.264-7.359c1.366-1.417,2.702-2.82,3.977-4.204   c9.407-10.211,16.314-19.767,20.468-32.06c0.098-0.292,0.196-0.677,0.291-1.109c0.015-0.067,0.03-0.13,0.044-0.2   c0.097-0.459,0.193-0.969,0.287-1.544c0.038-0.396,0.076-0.781,0.111-1.153c-1.043-5.353-3.071-10.555-4.859-15.692   c0.006,0.018,0.013,0.035,0.019,0.053c-0.01-0.009-0.044-0.043-0.051-0.049c-0.343-0.325-0.703-0.629-1.05-0.949   c-1.058-0.976-2.135-1.927-3.23-2.852c-3.286-2.772-6.74-5.3-10.363-7.531l0,0c0.184,3.008,0.301,6.013,0.332,9.015   c0.004,0.336-0.005,0.673-0.004,1.009c0.005,1.165,0.008,2.33-0.015,3.494c-0.029,1.5-0.08,3-0.158,4.499   c-0.057,1.107-0.128,2.213-0.214,3.319c-0.009,0.115-0.022,0.23-0.03,0.345c-0.335,4.192-0.866,8.366-1.627,12.485l-1.322,6.252   c-2.761,11.194-8.37,21.349-12.981,31.833c-1.223,2.781-2.383,5.591-3.4,8.455c-0.093,0.264-0.192,0.538-0.288,0.81   c1.44-1.513,2.715-2.822,3.685-3.783C164.278,190.286,165.316,189.258,166.334,188.246z" fill="#FBB040"/><path d="M143.582,138.069L143.582,138.069c0.601-0.564,1.254-1.074,1.95-1.522c0.002-0.001,0.004-0.002,0.006-0.004   c0.69-0.443,1.423-0.825,2.192-1.138c0.02-0.008,0.041-0.014,0.061-0.022c0.757-0.304,1.547-0.543,2.365-0.706   c0.029-0.006,0.059-0.008,0.088-0.013c0.822-0.158,1.669-0.247,2.538-0.247c0.885,0,1.747,0.09,2.583,0.254   c0.021,0.004,0.042,0.005,0.063,0.01c0.834,0.167,1.64,0.413,2.41,0.727c0.013,0.005,0.026,0.009,0.039,0.014   c1.563,0.643,2.979,1.57,4.184,2.718l-0.011-0.024l-9.192-28.409L143.582,138.069z" fill="#909393"/><path d="M140.316,152.966c-0.318-0.776-0.567-1.587-0.736-2.428c-0.004-0.017-0.005-0.036-0.008-0.053   c-0.166-0.842-0.257-1.711-0.257-2.602c0-0.475,0.026-0.943,0.074-1.404c0.011-0.108,0.035-0.213,0.049-0.32   c0.046-0.353,0.094-0.705,0.166-1.048c0.021-0.1,0.053-0.196,0.076-0.295c0.082-0.349,0.168-0.696,0.277-1.033   c0.023-0.071,0.052-0.139,0.076-0.209c0.123-0.362,0.254-0.721,0.407-1.069c0.018-0.04,0.039-0.079,0.057-0.119   c0.169-0.375,0.351-0.743,0.552-1.098c0.008-0.014,0.017-0.027,0.024-0.04c0.66-1.157,1.485-2.208,2.444-3.119l0,0l-39.015,9.638   h-0.074l38.643,9.432c-1.158-1.207-2.095-2.629-2.743-4.199C140.323,152.988,140.32,152.977,140.316,152.966z" fill="#676A6A"/><path d="M228.099,145.657c0.025-0.174,0.062-0.336,0.091-0.506c0.098-0.555,0.215-1.097,0.363-1.609   c0.016-0.058,0.023-0.124,0.04-0.181l5.091-23.31l-0.001-13.291c-4.159-3.435-8.613-5.313-13.252-5.313   c-5.859,0-11.322,3.234-15.408,7.231c-4.471,4.373-7.925,9.877-10.719,15.429c-0.128,0.255-0.26,0.501-0.387,0.758   c0.862,0.745,1.713,1.502,2.554,2.271c1.903,1.741,3.764,3.527,5.6,5.338c0.856,0.844,1.695,1.707,2.537,2.565   c0.893,0.91,1.788,1.817,2.668,2.742c1.131,1.189,2.253,2.39,3.363,3.601c0.467,0.51,0.933,1.021,1.397,1.534   c1.338,1.482,2.669,2.97,3.98,4.478l0.002,0.002c0.219,0.23,0.374,0.395,0.433,0.464h11.48c0-0.094,0.019-0.178,0.021-0.271   C227.965,146.925,228.01,146.277,228.099,145.657z" fill="#E2DDDB"/><path d="M193.918,124.926c-0.004-0.012-0.008-0.024-0.012-0.035l0,0c-0.006,0.013-0.013,0.026-0.02,0.039   c0.007,0.006,0.041,0.04,0.051,0.049C193.93,124.961,193.924,124.944,193.918,124.926z" fill="#E2DDDB"/><path d="M55.333,162.433c0.033-0.086,0.069-0.17,0.102-0.256c0.739-1.933,1.549-3.84,2.4-5.73   c0.237-0.527,0.482-1.047,0.727-1.57c0.696-1.483,1.433-2.945,2.197-4.394c0.311-0.59,0.614-1.182,0.936-1.766   c0.178-0.323,0.379-0.631,0.56-0.952c0.815-1.441,1.635-2.878,2.518-4.277c0.209-0.332,0.428-0.657,0.641-0.987   c1.091-1.688,2.223-3.348,3.411-4.966c0.104-0.141,0.2-0.288,0.305-0.428c1.246-1.678,2.561-3.301,3.91-4.894   c0.288-0.34,0.573-0.682,0.866-1.018c1.344-1.541,2.734-3.039,4.173-4.489c0.283-0.284,0.572-0.56,0.858-0.84   c1.529-1.499,3.093-2.963,4.725-4.35c0.004-0.003,0.007-0.007,0.011-0.01c6.42-21.51,26.066-37.169,49.315-37.169   c9.358,0,18.663,2.696,26.639,7.575c8.179,5.003,14.846,12.333,19.176,20.878c0.022,0.043,0.043,0.086,0.064,0.128   c0.109,0.217,0.232,0.425,0.34,0.642l0,0l0,0c0.004,0.007,0.008,0.015,0.012,0.022c0.008,0.005,0.016,0.011,0.025,0.016   c3.623,2.231,7.077,4.759,10.363,7.531c1.096,0.924,2.172,1.875,3.23,2.852c0.347,0.32,0.707,0.624,1.05,0.949   c0.006-0.013,0.013-0.027,0.019-0.04c0.005-0.008,0.009-0.017,0.013-0.026c0.118-0.243,0.234-0.489,0.355-0.727   c3.276-20.677,12.396-35.571,23.154-35.571c8.108,0,15.291,8.456,19.742,21.47l0.045,0.14c0.004,0.005,0.008,0.01,0.012,0.014   c1.257,1.366,2.482,2.871,3.669,4.52l-0.002-0.001c0.023,0.032,0.047,0.061,0.071,0.093l-0.001-0.001l0.001,0.001   c0.064,0.189,0.118,0.382,0.18,0.572v-0.001l-0.169-0.678c-13.382-39.619-50.855-68.143-94.99-68.143   c-55.36,0-100.239,44.878-100.239,100.238c0,10.914,1.744,21.42,4.982,31.198c0.004-0.019,0.009-0.038,0.013-0.057   c0.637-2.949,1.4-5.88,2.287-8.78C53.723,166.891,54.492,164.649,55.333,162.433z" fill="#525353"/><path d="M242.475,147.898l-3.496,3.911v-0.001c-0.002,0.009-0.006,0.017-0.008,0.027   c-0.133,0.513-0.296,0.995-0.475,1.458c-0.047,0.122-0.1,0.237-0.15,0.355c-0.139,0.328-0.289,0.639-0.45,0.935   c-0.086,0.158-0.172,0.319-0.264,0.467c-0.145,0.233-0.301,0.444-0.46,0.65c-0.229,0.298-0.47,0.566-0.724,0.803   c-0.104,0.097-0.205,0.204-0.313,0.291c-0.196,0.157-0.4,0.288-0.608,0.407c-0.079,0.045-0.158,0.087-0.239,0.127   c-0.501,0.245-1.027,0.388-1.574,0.388c-3.177,0-5.753-4.413-5.753-9.857h-0.023h-0.005h-11.48h-0.035   c0.002,0.003,0.005,0.005,0.007,0.008c2.142,2.475,4.249,4.983,6.327,7.515c0.025,0.031,0.05,0.061,0.076,0.092   c2.02,2.464,4.01,4.953,5.978,7.457c0.097,0.123,0.193,0.245,0.29,0.368c1.868,2.38,3.712,4.776,5.542,7.179   c0.178,0.233,0.357,0.464,0.534,0.697c1.935,2.546,3.853,5.099,5.756,7.654c0.013,0.018,0.026,0.036,0.04,0.054   c3.298-9.758,5.142-20.18,5.257-31.024h-0.026h-3.69L242.475,147.898z" fill="#FFFFFF"/><path d="M130.758,101.604c0.261-0.02,0.522-0.036,0.783-0.054c1.788-0.122,3.587-0.198,5.403-0.198   c5.435,0,10.746,0.583,15.911,1.641c0,0,0.001,0.027,0.001,0.075c0,0.044,0,0.112,0,0.191c0,0.095,0,0.217,0,0.353   c0,0.105,0,0.228,0,0.353c0,0.177,0,0.376,0,0.584c0,0.135,0,0.279,0,0.423c0,0.185,0.001,0.378,0.001,0.574v-2.554   c3.646,0.859,10.117,2.637,14.922,4.666c2.016,0.851,3.998,1.784,5.94,2.791c0.09,0.046,0.243,0.13,0.441,0.24   c0.033,0.018,0.083,0.047,0.119,0.067c0.18,0.1,0.376,0.21,0.606,0.339c0.005,0.003,0.011,0.006,0.016,0.009   c0.27,0.152,0.565,0.319,0.875,0.495c0.025,0.014,0.052,0.03,0.077,0.044c1.235,0.701,2.603,1.485,3.125,1.785   c0.067,0.038,0.098,0.056,0.134,0.077c0.025,0.015,0.085,0.049,0.094,0.054l0,0c-0.108-0.218-0.231-0.426-0.34-0.642   c-0.021-0.043-0.043-0.086-0.064-0.128c-4.33-8.545-10.997-15.875-19.176-20.878c-7.975-4.879-17.28-7.575-26.639-7.575   c-23.248,0-42.894,15.659-49.315,37.169c6.079-5.192,12.842-9.569,20.122-12.893C112.282,104.737,121.449,102.311,130.758,101.604z   "/><line fill="none" x1="152.856" x2="152.856" y1="105.547" y2="106.144"/><path d="M205.025,108.678c4.086-3.997,9.549-7.231,15.408-7.231c4.638,0,9.093,1.878,13.252,5.313c0,0,0.001,0.03,0.001,0.04   l0.001,0.007V106.8c0.372,0.306,0.737,0.651,1.105,0.984c0.223,0.202,0.45,0.387,0.671,0.598c0.584,0.559,1.161,1.151,1.732,1.77   v-0.001c0.011,0.012,0.022,0.026,0.033,0.038c-0.004-0.004-0.008-0.009-0.011-0.013l-0.001-0.001l-0.046-0.14   c-4.451-13.014-11.634-21.47-19.742-21.47c-10.758,0-19.878,14.894-23.154,35.571l0.034-0.029   C197.1,118.554,200.555,113.051,205.025,108.678z"/><path d="M110.096,240.294c0.915,0.351,1.846,0.669,2.774,0.994c10.369,3.633,21.505,5.634,33.116,5.634   c13.239,0,25.867-2.591,37.437-7.254c0.612-0.247,1.211-0.517,1.817-0.775c0.982-0.418,1.958-0.848,2.924-1.297   c0.864-0.401,1.729-0.799,2.579-1.225c-0.205,0.026-0.411,0.065-0.616,0.088l0,0c-3.597,0.405-7.167,0.429-10.654-0.073   c-20.625-2.965-25.194-12.909-24.54-23.266c-1.484-0.856-2.996-1.819-4.532-2.934c-15.862-11.508-25.277-23.767-25.277-23.767   s12.236,9.445,30.513,16.515c0.392,0.152,0.759,0.283,1.144,0.428c0.853-2.952,1.865-5.759,2.753-8.248l0,0   c0.097-0.271,0.195-0.546,0.288-0.81c1.017-2.864,2.176-5.674,3.4-8.455c4.611-10.484,10.22-20.64,12.981-31.833l1.322-6.252   h-11.254h-0.023h-0.001c0,0.008,0.001,0.015,0.001,0.022l-0.005,0.002l0,0c0,0.031,0.005,0.061,0.005,0.093   c0,1.859-0.377,3.63-1.058,5.241c-0.341,0.806-0.758,1.571-1.241,2.287c-0.968,1.433-2.205,2.669-3.638,3.637   c-0.716,0.484-1.482,0.901-2.287,1.242c-1.611,0.681-3.382,1.058-5.242,1.058c-0.472,0-0.938-0.025-1.399-0.073   c-0.108-0.011-0.212-0.035-0.319-0.049c-0.352-0.045-0.702-0.093-1.044-0.164c-0.096-0.02-0.187-0.05-0.282-0.072   c-0.351-0.082-0.701-0.168-1.041-0.277c-0.063-0.02-0.123-0.047-0.185-0.068c-0.368-0.124-0.733-0.257-1.086-0.41   c-0.032-0.014-0.062-0.031-0.093-0.045c-0.381-0.17-0.755-0.353-1.117-0.556c-0.006-0.003-0.011-0.007-0.017-0.011   c-1.159-0.654-2.213-1.473-3.128-2.427l-38.643-9.432H62.254c-0.181,0.321-0.382,0.63-0.56,0.952   c-0.322,0.584-0.625,1.177-0.936,1.766c-0.764,1.449-1.501,2.912-2.197,4.394c-0.246,0.522-0.49,1.045-0.727,1.57   c-0.851,1.89-1.661,3.797-2.4,5.73c-0.033,0.086-0.069,0.17-0.102,0.256c-0.841,2.216-1.61,4.457-2.302,6.718   c-0.887,2.9-1.651,5.831-2.287,8.78c6.64,20.25,19.557,37.65,36.444,49.915c0.491,0.356,1.009,0.674,1.507,1.022   c2.856,1.996,5.807,3.865,8.869,5.561C101.583,236.655,105.761,238.63,110.096,240.294z" fill="#FFFFFF"/><path d="M179.303,209.16c-0.153,1.075-0.257,2.129-0.289,3.149c-0.059,1.853,0.07,3.615,0.339,5.279   c0.179,1.109,0.421,2.176,0.712,3.197c0.436,1.532,0.983,2.962,1.594,4.284s1.287,2.537,1.981,3.638   c0.232,0.367,0.465,0.721,0.699,1.063c0.352,0.512,0.703,0.995,1.05,1.449c0.461,0.603,0.906,1.133,1.337,1.629   c1.839,2.116,3.288,3.264,3.288,3.264s0.011,0.033,0.03,0.093s0.048,0.147,0.084,0.254l0,0c0.205-0.023,0.411-0.062,0.616-0.088   c4.47-0.56,8.972-1.771,13.415-3.368c2.266-0.815,4.522-1.698,6.741-2.711c0.677-0.309,1.34-0.653,2.011-0.977   c22.96-11.103,42.187-30.74,42.187-30.74C226.249,212.75,198.054,212.186,179.303,209.16z" fill="#9F2255"/><path d="M234.638,170.478c-1.83-2.402-3.675-4.798-5.542-7.179c-0.096-0.123-0.194-0.245-0.29-0.368   c-1.968-2.504-3.958-4.992-5.978-7.457c-0.025-0.031-0.05-0.061-0.076-0.092c-2.077-2.532-4.184-5.04-6.327-7.515   c-0.137-0.157-0.271-0.316-0.408-0.473c-1.311-1.508-2.642-2.997-3.98-4.478c-0.464-0.513-0.929-1.025-1.397-1.534   c-1.11-1.211-2.232-2.411-3.363-3.601c-0.88-0.923-1.773-1.833-2.668-2.742c-0.842-0.858-1.681-1.721-2.537-2.565   c-1.838-1.81-3.698-3.598-5.6-5.338c-0.841-0.769-1.693-1.527-2.555-2.272c-0.004,0.009-0.008,0.017-0.013,0.026   c1.811,5.206,3.879,10.477,4.913,15.905c0.269,1.412,0.492,2.787,0.673,4.128c2.523,18.789-3.497,31.057-13.059,47.195   c-0.685,1.157-1.389,2.333-2.108,3.533c-2.186,3.645-3.587,7.098-4.399,10.338c-0.27,1.08-0.475,2.137-0.622,3.17   c18.751,3.027,46.947,3.591,75.796-10.585c0,0-5.657-8.315-14.171-19.746c-1.903-2.555-3.821-5.108-5.756-7.654   C234.996,170.942,234.816,170.71,234.638,170.478z" fill="#E2066F"/><path d="M190.014,236.113c0,0-1.449-1.148-3.288-3.264c-0.431-0.496-0.875-1.026-1.337-1.63c-0.347-0.454-0.699-0.937-1.05-1.449   c-0.234-0.342-0.467-0.696-0.699-1.063c-0.695-1.101-1.37-2.316-1.981-3.638s-1.158-2.753-1.594-4.284   c-0.291-1.021-0.532-2.087-0.712-3.197c-0.269-1.664-0.397-3.426-0.339-5.279c0.032-1.02,0.136-2.075,0.289-3.149   c0.147-1.033,0.352-2.089,0.622-3.17c0.811-3.241,2.212-6.693,4.399-10.339c0.006-0.01,0.012-0.02,0.018-0.03   c0.713-1.19,1.411-2.356,2.09-3.503c9.562-16.138,15.582-28.406,13.059-47.195c-0.181-1.342-0.404-2.716-0.673-4.128   c-0.143,0.976-0.29,1.816-0.44,2.52c-0.014,0.07-0.029,0.133-0.044,0.2c-0.096,0.429-0.193,0.817-0.291,1.109   c-4.154,12.293-11.06,21.848-20.468,32.06c-1.275,1.384-2.611,2.787-3.977,4.204c-2.3,2.384-4.712,4.819-7.264,7.359   c-1.018,1.012-2.055,2.04-3.113,3.087c-0.97,0.96-2.245,2.269-3.685,3.783l0,0c-0.889,2.488-1.9,5.295-2.753,8.248   c-0.385-0.146-0.752-0.277-1.144-0.428c-18.277-7.07-30.513-16.515-30.513-16.515s9.414,12.259,25.277,23.767   c1.536,1.115,3.049,2.078,4.532,2.934c-0.654,10.357,3.915,20.302,24.54,23.266c3.487,0.501,7.057,0.478,10.654,0.073   c-0.036-0.107-0.064-0.193-0.084-0.254C190.024,236.146,190.014,236.113,190.014,236.113z"/></g></svg>